<svg width="146" height="26" viewBox="0 0 146 26" fill="none" xmlns="http://www.w3.org/2000/svg">
<path fill-rule="evenodd" clip-rule="evenodd" d="M42.2511 24.8372H40.2548V0.21723H42.3676V24.8372H42.2511H42.2511ZM89.5259 11.0854L99.4876 0.255382L99.5563 0.31901V0.21723H102.335L92.469 10.894L102.158 24.8372H99.6457L91.0617 12.4738L89.526 14.2147V24.8372H87.4133V0.217188H89.526V11.0853L89.5259 11.0854ZM15.8943 2.78405C14.8306 2.40545 13.6708 2.2039 12.4429 2.2039H12.3517C9.57592 2.22913 7.05291 3.40841 5.21414 5.27715C3.34288 7.17886 2.17958 9.79508 2.17958 12.6353C2.17958 15.5002 3.33629 18.1094 5.19771 20.0014C7.05762 21.8914 9.62291 23.0669 12.4429 23.0669C13.6788 23.0669 14.8487 22.8767 15.9236 22.5052C16.9963 22.1344 17.9773 21.5822 18.8386 20.8579L18.9224 20.7874L20.4146 22.3597L20.3182 22.4396C19.2396 23.3333 17.9979 24.0479 16.6396 24.5332C15.3351 24.9991 13.9225 25.2542 12.4429 25.2542C9.01143 25.2542 5.90812 23.8301 3.65944 21.5465C1.398 19.2496 -6.10352e-05 16.0825 -6.10352e-05 12.619C-6.10352e-05 9.18226 1.40426 6.01204 3.67445 3.70961C5.92121 1.43048 9.01839 3.05176e-05 12.4429 3.05176e-05C13.9099 3.05176e-05 15.3113 0.266761 16.6064 0.743243C17.9769 1.24755 19.23 1.98883 20.3182 2.89875L20.4136 2.97815L18.922 4.55021L18.8383 4.47947C17.9742 3.74563 16.9829 3.17142 15.8943 2.78405H15.8943ZM106.543 24.8537H104.68V0.233796H106.659V24.8537H106.543ZM61.4527 0.530771C61.6721 0.311188 61.9729 0.167239 62.3125 0.167239C62.6502 0.167239 62.9496 0.313321 63.168 0.532319C63.4015 0.766586 63.5438 1.08699 63.5438 1.40266C63.5438 1.75151 63.4101 2.06054 63.1891 2.28225C62.9682 2.50397 62.6603 2.63796 62.3125 2.63796C61.9649 2.63796 61.6569 2.50393 61.4359 2.28225C61.215 2.06054 61.0813 1.75151 61.0813 1.40266C61.0813 1.08013 61.2219 0.762445 61.4527 0.530771ZM32.4176 9.7471C33.4255 10.246 34.315 10.9549 35.0319 11.8312V9.39766H37.1447V24.8705H35.0319V22.3064C34.3101 23.1985 33.4127 23.9302 32.3955 24.4471C31.3138 24.9968 30.0963 25.3042 28.8108 25.3042C26.5498 25.3042 24.4992 24.3811 23.0144 22.8913C21.5297 21.4015 20.6098 19.3437 20.6098 17.0752C20.6098 14.8366 21.533 12.7927 23.0222 11.3103C24.507 9.8334 26.5541 8.91331 28.8108 8.91331C30.1047 8.91331 31.3302 9.20882 32.4176 9.74705V9.7471ZM24.4498 21.4331C25.5614 22.5487 27.1021 23.2342 28.8108 23.2342C30.4919 23.2342 32.0379 22.5395 33.1594 21.4141C34.2701 20.2997 34.9651 18.7621 34.9651 17.0588C34.9651 15.38 34.2629 13.8359 33.1429 12.7121C32.0229 11.5883 30.4838 10.8836 28.8107 10.8836C27.1066 10.8836 25.5758 11.5795 24.4677 12.6913C23.3462 13.8167 22.6562 15.3694 22.6562 17.0588C22.6562 18.7772 23.3403 20.3201 24.4497 21.4331H24.4498ZM46.2666 9.46664L51.5178 21.1178L56.8827 9.3977H59.1514C56.5998 14.9285 54.0618 20.4662 51.517 26L43.8828 9.3977H46.2355L46.2666 9.46669L46.2666 9.46664ZM63.2107 24.8705H61.2144V9.3977H63.3272V24.8705H63.2106H63.2107ZM70.0572 9.44355C70.8447 9.08805 71.7297 8.9134 72.6088 8.9134C74.312 8.9134 75.8553 9.60708 76.9723 10.7275C78.0893 11.848 78.7805 13.3966 78.7805 15.1058V24.8705H76.734V15.1058C76.734 13.9403 76.2736 12.881 75.5256 12.1154C74.7823 11.3549 73.7535 10.8833 72.6088 10.8833C71.3937 10.8833 70.3228 11.309 69.5663 12.068C68.8395 12.7973 68.4003 13.8377 68.4003 15.1058V24.8705H66.2874V9.3977H68.4003V10.6535C68.856 10.1308 69.4258 9.72852 70.0572 9.44355ZM128.522 0.547254C128.741 0.32767 129.042 0.183721 129.382 0.183721C129.719 0.183721 130.019 0.329803 130.237 0.548801C130.471 0.783069 130.613 1.10347 130.613 1.41915C130.613 1.768 130.479 2.07702 130.258 2.29874C130.037 2.52045 129.73 2.65457 129.382 2.65457C129.034 2.65457 128.726 2.52045 128.505 2.29874C128.284 2.07702 128.151 1.768 128.151 1.41915C128.151 1.09661 128.291 0.778927 128.522 0.547254ZM137.277 9.44355C138.064 9.08805 138.95 8.9134 139.828 8.9134C141.532 8.9134 143.075 9.60708 144.192 10.7275C145.309 11.848 146 13.3966 146 15.1058V24.8705H143.953V15.1058C143.953 13.9403 143.493 12.881 142.745 12.1154C142.002 11.3551 140.974 10.8833 139.828 10.8833C138.613 10.8833 137.542 11.309 136.786 12.068C136.059 12.7973 135.62 13.8377 135.62 15.1058V24.8705H133.574V9.3977H135.62V10.6535C136.076 10.1308 136.646 9.72852 137.277 9.44355H137.277ZM111.776 11.293C113.244 9.82001 115.277 8.9134 117.538 8.9134H117.819L117.798 8.93473C119.925 9.00643 121.859 9.90435 123.276 11.3257C124.743 12.7975 125.656 14.8316 125.656 17.0917V17.3422H111.387C111.449 18.9707 112.143 20.4314 113.226 21.4921C114.338 22.5814 115.862 23.2508 117.538 23.2508C118.73 23.2508 119.85 22.9157 120.792 22.3258C121.747 21.7283 122.522 20.8675 123.006 19.8301L123.056 19.7237L124.862 20.5922L124.813 20.6969C124.173 22.0571 123.133 23.2022 121.852 24.0011C120.596 24.7847 119.108 25.2374 117.538 25.2374C115.277 25.2374 113.243 24.3308 111.775 22.8578C110.307 21.3845 109.404 19.3436 109.404 17.0753C109.404 14.8069 110.307 12.7663 111.775 11.293H111.776ZM111.64 15.2057H123.354C122.983 13.982 122.232 12.9211 121.242 12.1598C120.214 11.3701 118.928 10.9001 117.538 10.9001C116.15 10.9001 114.86 11.3573 113.821 12.1364C112.809 12.8951 112.034 13.9601 111.64 15.2057L111.64 15.2057ZM130.214 24.8705H128.284V9.3977H130.33V24.8705H130.214Z" fill="black"/>
</svg>
