<svg width="141" height="26" viewBox="0 0 141 26" fill="none" xmlns="http://www.w3.org/2000/svg">
<g clip-path="url(#clip0_1_1211)">
<path d="M13.41 6.8C14.3025 6.82225 15.179 7.04075 15.9775 7.43998C16.776 7.83922 17.4767 8.40939 18.03 9.10999V9.24L18.16 9.37C18.4964 9.77999 18.919 10.1108 19.3978 10.3389C19.8765 10.5671 20.3997 10.687 20.93 10.69C21.3996 10.6927 21.865 10.6021 22.2993 10.4237C22.7337 10.2452 23.1282 9.98231 23.4603 9.65028C23.7923 9.31824 24.0552 8.92363 24.2337 8.4893C24.4121 8.05497 24.5027 7.58957 24.5 7.12001C24.5078 6.23844 24.1787 5.38715 23.58 4.74C22.4015 3.17739 20.8587 1.92672 19.0861 1.09706C17.3135 0.267389 15.3648 -0.116107 13.41 -0.0200096C5.75002 -0.0200096 1.52588e-05 5.25999 1.52588e-05 12.73C1.52588e-05 20.2 5.68 25.48 13.27 25.54H13.67C15.5481 25.5975 17.4149 25.2298 19.131 24.4644C20.847 23.699 22.3679 22.5558 23.58 21.12C24.1223 20.4709 24.4258 19.6557 24.44 18.81C24.4504 18.0997 24.2419 17.4034 23.8428 16.8157C23.4437 16.228 22.8733 15.7774 22.2092 15.5251C21.5452 15.2728 20.8195 15.231 20.1308 15.4054C19.4422 15.5798 18.8239 15.962 18.36 16.5C17.7488 17.2303 16.9835 17.8161 16.119 18.2155C15.2545 18.6149 14.3123 18.818 13.36 18.81C9.86 18.81 7.87999 16.3 7.87999 12.73C7.87999 9.15999 9.88 6.78999 13.36 6.78999L13.41 6.8ZM63.74 25.56H64C71.53 25.49 77.34 20.21 77.34 12.88C77.34 5.35001 71.46 9.89437e-06 63.87 9.89437e-06C56.28 9.89437e-06 50.4 5.35001 50.4 12.88C50.4 20.21 56.21 25.49 63.74 25.56ZM94.74 25.56H95.07C96.9636 25.635 98.8492 25.2757 100.583 24.5096C102.316 23.7434 103.851 22.5908 105.07 21.14C105.629 20.4962 105.953 19.6819 105.99 18.83C105.979 17.8929 105.598 16.9982 104.928 16.3421C104.259 15.6859 103.357 15.322 102.42 15.33C101.93 15.3305 101.445 15.4372 101 15.6426C100.554 15.848 100.159 16.1473 99.84 16.52C99.2335 17.2557 98.4691 17.8454 97.6035 18.2453C96.7379 18.6452 95.7934 18.8451 94.84 18.83C91.34 18.83 89.36 16.32 89.36 12.75C89.36 9.18001 91.36 6.81001 94.84 6.81001C95.7267 6.81735 96.5998 7.0297 97.3908 7.43043C98.1819 7.83116 98.8695 8.40942 99.4 9.12L99.53 9.25001C99.5384 9.29986 99.563 9.34555 99.6 9.38001C99.9325 9.79733 100.353 10.1357 100.832 10.3709C101.311 10.6061 101.836 10.7321 102.37 10.74C102.84 10.7427 103.305 10.6521 103.739 10.4736C104.174 10.2952 104.568 10.0323 104.9 9.7003C105.232 9.36826 105.495 8.97365 105.674 8.53932C105.852 8.10499 105.943 7.63955 105.94 7.16999C105.948 6.28842 105.619 5.43714 105.02 4.78999C103.842 3.22737 102.299 1.97674 100.526 1.14707C98.7535 0.317407 96.8048 -0.0660886 94.85 0.0300087C87.19 0.0300087 81.44 5.31001 81.44 12.78C81.44 20.25 87.12 25.53 94.71 25.59L94.74 25.56ZM119.84 25.56H120.24C127.83 25.49 130.15 21.86 130.15 17.37C130.15 12.22 125.66 10.57 122.09 9.71C118.79 8.98 117.2 8.85 117.2 7.46C117.2 6.46 118.06 6.00999 119.84 6.00999C121.591 6.06482 123.271 6.71771 124.6 7.86C125.153 8.34977 125.861 8.62942 126.6 8.65C127.396 8.65 128.159 8.33392 128.721 7.77131C129.284 7.2087 129.6 6.44565 129.6 5.65C129.596 5.22645 129.506 4.80815 129.334 4.42109C129.162 4.03403 128.912 3.68648 128.6 3.4C127.422 2.25855 126.023 1.37059 124.489 0.790964C122.955 0.211343 121.318 -0.0476259 119.68 0.0300087C114.46 0.0300087 110.24 2.27999 110.24 7.81999C110.24 12.91 113.94 14.75 117.31 15.61C121.31 16.67 122.79 16.67 122.79 17.99C122.79 19.05 122 19.51 119.49 19.51C117.527 19.4921 115.633 18.7841 114.14 17.51L114.21 17.58C113.677 17.0823 112.985 16.7899 112.256 16.7548C111.528 16.7196 110.811 16.944 110.233 17.388C109.654 17.8321 109.252 18.4669 109.098 19.1795C108.943 19.8922 109.047 20.6365 109.39 21.28C109.39 21.35 109.46 21.35 109.46 21.41C109.51 21.5081 109.578 21.5962 109.66 21.67C109.687 21.746 109.731 21.8146 109.79 21.87L109.99 22.07C109.99 22.14 110.06 22.14 110.12 22.2C112.806 24.4774 116.24 25.6781 119.76 25.57L119.84 25.56ZM63.9 19.02C60.47 19.02 58.35 16.44 58.35 12.88C58.35 9.32001 60.46 6.66999 63.9 6.66999C67.34 6.66999 69.45 9.18001 69.45 12.88C69.45 16.58 67.34 19.02 63.9 19.02Z" fill="black"/>
<path d="M46.5 1.58C45.3173 0.985165 43.9769 0.7787 42.67 0.990002C40.3513 1.29483 38.1955 2.34817 36.53 3.99V4.06001V3.99C36.4559 2.98745 35.9995 2.05166 35.255 1.37608C34.5106 0.700496 33.535 0.336746 32.53 0.359997C31.4862 0.359671 30.4837 0.767362 29.7363 1.49601C28.989 2.22467 28.5561 3.21655 28.53 4.25999V21.56C28.6662 22.52 29.1464 23.3978 29.8814 24.0303C30.6164 24.6627 31.5561 25.0066 32.5257 24.998C33.4952 24.9895 34.4287 24.629 35.1524 23.9837C35.8761 23.3385 36.3408 22.4523 36.46 21.49V16.84C36.46 10.37 40.22 8.78001 42.27 8.72001C43.2859 8.95691 44.327 9.06773 45.37 9.05C46.1786 8.88483 46.9163 8.47361 47.4819 7.87272C48.0476 7.27184 48.4136 6.51069 48.5296 5.69365C48.6457 4.8766 48.5063 4.04365 48.1304 3.30897C47.7545 2.5743 47.1606 1.97387 46.43 1.59001L46.5 1.58Z" fill="black"/>
<path d="M131.96 1.44999H132.03V0.740003C132.047 0.628721 132.07 0.518543 132.1 0.410016V0.150006L132.3 -0.0500058H132.63C132.681 -0.0566967 132.734 -0.0478989 132.78 -0.0247373C132.826 -0.00157569 132.865 0.034899 132.89 0.0799991C132.96 0.149999 133.02 0.150011 133.02 0.280011C133.081 0.403867 133.106 0.542717 133.09 0.680005V1.41002H133.42C133.62 1.41002 133.68 1.40999 133.75 1.47999C133.818 1.55187 133.863 1.64237 133.88 1.74C133.88 1.87 133.81 1.94001 133.68 2.00001C133.544 2.09105 133.383 2.13658 133.22 2.13002H133.09V4.31001C133.09 4.44001 133.09 4.50999 133.16 4.50999C133.191 4.54953 133.23 4.58172 133.275 4.6042C133.32 4.62668 133.37 4.63889 133.42 4.64C133.456 4.64441 133.493 4.64041 133.528 4.62828C133.563 4.61614 133.594 4.59619 133.62 4.56999H133.88C133.916 4.56557 133.953 4.5696 133.988 4.58174C134.023 4.59387 134.054 4.6138 134.08 4.64C134.12 4.67103 134.152 4.71046 134.174 4.75541C134.197 4.80037 134.209 4.84975 134.21 4.90001C134.198 4.97233 134.167 5.0404 134.122 5.09803C134.077 5.15567 134.017 5.20103 133.95 5.22999C133.712 5.37296 133.437 5.44255 133.16 5.43001C132.901 5.44456 132.645 5.37433 132.43 5.22999C132.27 5.11946 132.153 4.9569 132.1 4.77C132.1 4.64 132.03 4.36999 132.03 4.03999V2.12001H131.9C131.778 2.11846 131.66 2.07221 131.57 1.99C131.5 1.92 131.5 1.85999 131.5 1.72999C131.493 1.63784 131.517 1.54599 131.57 1.47001C131.64 1.40001 131.77 1.40001 131.97 1.40001L131.96 1.44999Z" fill="black"/>
<path d="M138.03 3.4999V4.81988C138.037 4.98312 137.991 5.14424 137.9 5.2799C137.842 5.34445 137.771 5.39574 137.692 5.43026C137.612 5.46478 137.527 5.48171 137.44 5.47988C137.372 5.4813 137.304 5.46326 137.246 5.42785C137.187 5.39243 137.14 5.34112 137.11 5.2799C136.98 5.2099 136.98 5.01988 136.98 4.81988V3.16988C136.98 2.96988 136.91 2.76989 136.91 2.57989C136.911 2.5191 136.9 2.45867 136.878 2.40224C136.855 2.34582 136.821 2.29457 136.778 2.25158C136.735 2.20859 136.684 2.17476 136.628 2.15212C136.571 2.12949 136.511 2.11853 136.45 2.1199C136.32 2.10291 136.187 2.12525 136.07 2.18404C135.952 2.24284 135.855 2.3354 135.79 2.44988C135.646 2.76295 135.577 3.10548 135.59 3.44988V4.8399C135.604 4.92141 135.599 5.00493 135.577 5.08446C135.554 5.164 135.514 5.23756 135.46 5.29989C135.421 5.36927 135.362 5.42539 135.291 5.46102C135.219 5.49665 135.139 5.51019 135.06 5.4999C134.93 5.4999 134.86 5.42989 134.73 5.29989C134.676 5.23756 134.636 5.164 134.613 5.08446C134.591 5.00493 134.586 4.92141 134.6 4.8399V1.92989C134.6 1.72989 134.6 1.5999 134.73 1.5299C134.76 1.46868 134.807 1.41737 134.866 1.38195C134.924 1.34653 134.992 1.32847 135.06 1.32989C135.182 1.33144 135.3 1.37769 135.39 1.45989C135.44 1.51273 135.478 1.57604 135.5 1.64522C135.523 1.71441 135.529 1.78774 135.52 1.85989V1.98989C135.664 1.77855 135.87 1.61766 136.11 1.5299C136.306 1.40087 136.535 1.33208 136.77 1.33208C137.005 1.33208 137.234 1.40087 137.43 1.5299C137.535 1.56952 137.63 1.63103 137.709 1.71035C137.789 1.78966 137.85 1.88495 137.89 1.98989C137.942 1.88096 138.016 1.7839 138.107 1.70476C138.198 1.62563 138.305 1.56612 138.42 1.5299C138.613 1.39547 138.844 1.32548 139.08 1.32989C139.338 1.32444 139.591 1.39394 139.81 1.5299C139.913 1.56189 140.005 1.62187 140.075 1.70312C140.146 1.78436 140.193 1.88365 140.21 1.98989C140.34 2.11989 140.34 2.3899 140.41 2.7199V4.89989C140.34 5.09989 140.34 5.22989 140.21 5.29989C140.18 5.36111 140.132 5.41242 140.074 5.44784C140.016 5.48325 139.948 5.50132 139.88 5.4999C139.801 5.51019 139.721 5.49665 139.649 5.46102C139.578 5.42539 139.519 5.36927 139.48 5.29989C139.426 5.23756 139.386 5.164 139.363 5.08446C139.341 5.00493 139.336 4.92141 139.35 4.8399V3.1199C139.35 2.9199 139.28 2.7199 139.28 2.5899C139.278 2.46771 139.232 2.3503 139.15 2.25988C139.039 2.16622 138.895 2.11962 138.75 2.1299C138.628 2.13146 138.51 2.17768 138.42 2.25988C138.28 2.33464 138.165 2.44954 138.09 2.5899C138.019 2.89112 137.996 3.20144 138.02 3.50988L138.03 3.4999Z" fill="black"/>
</g>
<defs>
<clipPath id="clip0_1_1211">
<rect width="140.41" height="25.56" fill="white"/>
</clipPath>
</defs>
</svg>
