<svg width="141" height="38" viewBox="0 0 141 38" fill="none" xmlns="http://www.w3.org/2000/svg">
<g clip-path="url(#clip0_1_1216)">
<path fill-rule="evenodd" clip-rule="evenodd" d="M15.3934 31.5384C14.6689 32.436 14.1175 33.463 13.7676 34.5663V34.7744C13.7344 34.8254 13.7167 34.8851 13.7167 34.9461C13.7167 35.0071 13.7344 35.0668 13.7676 35.1178L14.0351 35.5964C14.0464 35.6136 14.0617 35.6277 14.0797 35.6374C14.0976 35.6472 14.1177 35.6523 14.1381 35.6523C14.1584 35.6523 14.1785 35.6472 14.1964 35.6374C14.2144 35.6277 14.2297 35.6136 14.241 35.5964C14.313 35.4611 14.3747 35.2531 14.4467 35.1178C14.908 34.4101 15.4817 33.7843 16.1446 33.2656C16.4841 32.9223 15.9387 32.0274 15.7329 31.6112C15.7162 31.5829 15.694 31.5584 15.6674 31.5393C15.6409 31.5201 15.6108 31.5067 15.5789 31.4998C15.547 31.493 15.5141 31.4929 15.4822 31.4995C15.4503 31.5062 15.42 31.5194 15.3934 31.5384Z" fill="#141B53"/>
<path fill-rule="evenodd" clip-rule="evenodd" d="M15.5581 24.806C15.6301 24.806 15.6919 24.806 15.6919 24.7332C15.7259 24.276 15.7259 23.8169 15.6919 23.3597H15.6199C14.6573 22.8241 13.6146 22.4515 12.5329 22.2567C12.4609 22.1839 12.3992 22.2567 12.3992 22.3296C12.456 22.4823 12.4806 22.6453 12.4712 22.8082C12.4811 22.8063 12.4912 22.8069 12.5008 22.8099C12.5104 22.8129 12.5191 22.8182 12.5262 22.8254C12.5333 22.8326 12.5385 22.8414 12.5415 22.8511C12.5445 22.8608 12.5451 22.8711 12.5432 22.881C13.6917 23.3022 14.7424 23.9574 15.6302 24.806H15.5581Z" fill="#E31145"/>
<path fill-rule="evenodd" clip-rule="evenodd" d="M10.7939 36.0854C10.9997 35.8773 11.9464 35.6692 12.43 35.1906C12.7856 34.4744 13.0386 33.7106 13.1812 32.9222C13.1812 31.4759 13.2532 29.2075 13.1091 27.5635C12.9651 25.9195 12.7696 24.6813 12.5638 23.5055C12.4917 23.3702 12.6358 23.2974 12.7696 23.2974C13.7453 23.7698 14.6412 24.3948 15.4243 25.1495C15.5581 25.2223 15.5581 25.3576 15.6301 25.42C15.7639 27.6884 14.8172 28.9266 15.2905 30.7787C15.3212 30.8917 15.3453 31.0063 15.3626 31.1221C15.2905 31.2574 15.2288 31.3302 15.2288 31.3927C14.4419 32.3446 13.8413 33.4393 13.459 34.6183C13.4625 34.8099 13.5082 34.9982 13.5927 35.1697C13.7265 35.4403 14.3439 36.127 13.9323 36.3351C13.5077 36.4139 13.0776 36.4591 12.6461 36.4704C12.0973 36.495 11.5476 36.4496 11.01 36.3351C10.938 36.3351 10.6705 36.3351 10.8042 36.0646L10.7939 36.0854Z" fill="#141B53"/>
<path fill-rule="evenodd" clip-rule="evenodd" d="M15.9593 33.7441C15.9593 33.7441 16.0313 33.817 15.9593 33.817C15.7624 34.2014 15.6468 34.6231 15.6197 35.0552C15.5715 35.5358 15.5474 36.0185 15.5477 36.5015H15.2081C15.1722 35.9541 15.1722 35.4049 15.2081 34.8575C15.1897 34.7554 15.1992 34.6501 15.2354 34.5529C15.2717 34.4558 15.3334 34.3704 15.4139 34.306C15.5779 34.105 15.7605 33.9203 15.9593 33.7545V33.7441Z" fill="#141B53"/>
<path d="M24.0471 19.7908C23.975 19.9989 23.975 20.2694 23.6355 20.3423C23.255 20.2832 22.8985 20.1174 22.6065 19.8636C21.7338 19.4243 20.8946 18.92 20.0958 18.3549C19.6433 18.0557 19.3255 17.5885 19.2109 17.0542C19.3446 16.5027 19.962 17.127 20.6412 17.1895C21.1145 17.1895 21.1865 18.0115 21.5878 18.3549C21.85 18.5447 22.1472 18.6794 22.4618 18.7509C22.7765 18.8224 23.1021 18.8293 23.4194 18.7711C23.6869 18.7711 23.9647 18.6982 24.1705 18.6982C24.3763 18.6982 24.4381 18.8335 24.3763 18.9064C24.2426 19.2497 24.1705 19.5203 24.0368 19.8012L24.0471 19.7908Z" fill="#1B2747"/>
<path fill-rule="evenodd" clip-rule="evenodd" d="M22.2875 18.3965C22.7344 18.5006 23.1989 18.5006 23.6457 18.3965C23.7178 18.3965 23.7178 18.2612 23.6457 18.2612C23.3782 18.126 22.8329 18.126 22.4933 17.9907C22.2582 17.9248 22.0306 17.8341 21.8142 17.7202C21.6804 17.6473 21.5466 17.6473 21.6804 17.8554C21.7357 17.9865 21.8188 18.1038 21.9236 18.1991C22.0285 18.2944 22.1527 18.3653 22.2875 18.4069V18.3965Z" fill="#E10585"/>
<path d="M8.01569 10.9983C9.57973 12.5799 10.0736 12.3718 10.0736 12.3718C10.1457 12.1637 10.0737 11.8203 9.86786 11.7579C9.66206 11.6955 9.26077 11.3417 8.83889 10.9983C7.11163 9.52245 5.49832 7.91537 4.01301 6.19111C3.94098 6.05584 3.8072 6.05584 3.67343 6.19111C3.64024 6.24208 3.62256 6.30176 3.62256 6.36279C3.62256 6.42382 3.64024 6.48352 3.67343 6.53449L8.01569 10.9983Z" fill="#1B2747"/>
<path d="M5.02137 4.46387C5.13978 4.40629 5.27524 4.39571 5.40098 4.43424C5.52673 4.47277 5.63358 4.55761 5.70046 4.67197C5.80215 4.8829 5.91553 5.08786 6.04004 5.28588C6.11735 5.42014 6.16395 5.57021 6.17642 5.72505C6.18888 5.8799 6.1669 6.0356 6.11208 6.18073C6.04005 6.45127 5.9783 6.73222 5.90627 6.94032C5.88852 6.97751 5.86229 7.00988 5.82971 7.03478C5.79714 7.05967 5.75918 7.07636 5.71896 7.08347C5.67874 7.09059 5.6374 7.08792 5.59841 7.07569C5.55941 7.06347 5.52387 7.04203 5.49469 7.01315C4.88759 6.25357 4.13644 5.43156 4.13644 5.35872C4.00267 5.01535 5.02137 4.46387 5.02137 4.46387Z" fill="#E21243"/>
<path d="M6.79117 5.91031C6.96599 6.01419 7.14829 6.10462 7.33652 6.18084C7.58214 6.28622 7.77767 6.48395 7.88188 6.73232C7.99398 7.11504 8.08329 7.50421 8.14939 7.89772C8.30901 8.51742 8.58499 9.10028 8.96229 9.61458C9.01414 9.73433 9.04092 9.86365 9.04092 9.99438C9.04092 10.1251 9.01414 10.2544 8.96229 10.3742C8.96229 10.3742 8.96228 10.447 8.89025 10.3742L6.83231 8.29311C6.61652 8.0767 6.41379 7.84739 6.22522 7.60638C6.17101 7.52732 6.14555 7.43171 6.15318 7.33583C6.28695 7.06529 6.42074 6.37854 6.5648 6.0976C6.70885 5.81666 6.77057 5.88951 6.83231 5.96234L6.79117 5.91031Z" fill="#1B2747"/>
<path fill-rule="evenodd" clip-rule="evenodd" d="M9.37393 10.9255C9.3019 10.9255 9.3019 10.8527 9.3019 10.7902C9.39457 10.4518 9.41907 10.0979 9.37393 9.7497C9.10705 9.21971 8.88003 8.67014 8.69481 8.10566C8.69481 7.9704 8.56106 7.49175 8.48903 7.06514C8.417 6.85703 8.75655 6.79459 8.82858 6.99229C8.90061 7.18999 8.90061 7.20041 8.90061 7.26284C9.09063 8.40528 9.43694 9.51541 9.92959 10.5613C10.3412 11.2481 10.4029 11.1752 10.4029 11.3833C10.4749 11.5186 10.2692 11.6539 10.1971 11.5186L9.37393 10.9255Z" fill="#E31145"/>
<path d="M15.9592 9.89538C15.9691 9.89724 15.9793 9.89665 15.9888 9.89365C15.9984 9.89065 16.0072 9.88532 16.0142 9.87815C16.0213 9.87098 16.0266 9.86217 16.0296 9.85248C16.0325 9.84279 16.0331 9.83251 16.0313 9.82253C15.8929 9.63321 15.7788 9.42694 15.6917 9.20863V9.03174C15.6917 8.9589 15.5579 8.9589 15.5579 9.03174C15.4545 9.1162 15.3403 9.18619 15.2184 9.23984C15.0846 9.37511 14.8068 9.71849 14.6113 9.92659C14.5527 9.9896 14.5145 10.0691 14.5016 10.1546C14.4888 10.2401 14.5019 10.3275 14.5393 10.4052L14.8068 10.9567C14.8068 11.092 14.8788 11.2272 14.8788 11.3729C14.8788 11.5186 15.0126 11.4458 15.0846 11.3729L15.9592 9.89538Z" fill="#1B2747"/>
<path fill-rule="evenodd" clip-rule="evenodd" d="M16.371 10.374L15.342 11.8828V11.9556C15.342 12.1637 15.5478 12.6424 15.5478 12.7776C15.5481 13.0449 15.6192 13.3071 15.7536 13.5372C15.9594 13.8078 16.7002 14.3592 16.8443 14.5778L17.5954 15.0564C17.6675 15.0564 17.935 14.9836 17.6674 14.5049C17.3999 14.0263 17.1941 13.9534 17.0603 13.4644C17.0202 12.7678 17.0651 12.0688 17.1941 11.3833C17.1658 11.1752 17.072 10.9819 16.9266 10.8319C16.7928 10.6237 16.587 10.4885 16.515 10.3532C16.443 10.218 16.3812 10.2804 16.3812 10.3532L16.371 10.374Z" fill="#00A3D3"/>
<path d="M14.5394 11.2689C14.6114 10.9255 14.1998 10.5093 14.1278 10.5822C14.0557 10.655 13.3149 11.6851 13.3149 11.6851C13.3149 11.6851 13.2429 11.8204 13.3149 11.8204L13.8603 12.299C13.8603 12.3719 13.9323 12.3719 13.994 12.299C14.0558 12.2262 14.5394 11.6851 14.5394 11.2585V11.2689Z" fill="#1B2747"/>
<path d="M16.5767 9.34391C16.5767 9.41674 16.443 9.41674 16.443 9.34391C16.3429 9.19081 16.2536 9.03087 16.1754 8.86526C16.1412 8.80135 16.1233 8.72983 16.1233 8.65716C16.1233 8.58448 16.1412 8.51296 16.1754 8.44905C16.4215 8.04604 16.6054 7.60745 16.7208 7.1484C16.9266 6.38881 18.6244 2.4036 18.7787 1.94577C18.8083 1.89364 18.8495 1.84923 18.899 1.8161C18.9486 1.78296 19.0052 1.76202 19.0642 1.75494C19.1232 1.74786 19.183 1.75484 19.2388 1.77533C19.2947 1.79581 19.345 1.82924 19.3858 1.87292C19.49 1.99378 19.5579 2.14216 19.5816 2.30065C19.6053 2.45915 19.5838 2.6212 19.5196 2.76778L16.5767 9.34391Z" fill="#1B2747"/>
<path fill-rule="evenodd" clip-rule="evenodd" d="M19.7048 5.15057C19.4467 5.27454 19.1959 5.41351 18.9537 5.56678C18.8199 5.56678 18.7479 5.49393 18.8199 5.4315L20.0444 2.81979C20.0867 2.72382 20.1574 2.64343 20.2466 2.58962C20.3359 2.5358 20.4394 2.5112 20.5431 2.51917C20.6467 2.52714 20.7454 2.5673 20.8256 2.63415C20.9057 2.701 20.9635 2.79129 20.991 2.89263C21.0009 2.89077 21.0111 2.89136 21.0207 2.89436C21.0302 2.89736 21.0389 2.90267 21.046 2.90984C21.0531 2.91702 21.0584 2.92584 21.0614 2.93553C21.0643 2.94522 21.0649 2.95549 21.0631 2.96546C21.1351 3.10073 21.1968 3.38167 21.2689 3.51694C21.3034 3.56739 21.3219 3.62729 21.3219 3.68863C21.3219 3.74998 21.3034 3.80986 21.2689 3.86031C20.8791 4.43425 20.337 4.88513 19.7048 5.16097V5.15057Z" fill="#00A3D3"/>
<path d="M16.7105 9.68733L18.2025 6.6594C18.2671 6.50601 18.3576 6.36517 18.47 6.24319C19.2829 5.62928 20.3016 5.34834 21.0527 4.66159C21.1248 4.58875 21.2585 4.73441 21.1865 4.79685L17.3793 10.5718C17.2455 10.8423 16.906 10.4365 16.7722 10.3012C16.6954 10.221 16.6467 10.1175 16.6337 10.0066C16.6207 9.89566 16.644 9.78351 16.7002 9.68733H16.7105Z" fill="#1B2747"/>
<path d="M20.7852 11.6851C20.8572 11.6123 20.919 11.6851 20.919 11.7579C20.919 11.8308 20.8469 11.8932 20.7852 11.966C20.322 12.0867 19.8855 12.295 19.499 12.5799C19.3722 12.7358 19.2998 12.9297 19.2932 13.1314C19.2932 13.2667 19.0874 13.4748 18.6141 13.2042C18.0741 12.7685 17.6908 12.1652 17.5234 11.4874C17.5234 11.3521 17.5954 11.2169 17.7292 11.2793C17.8629 11.3417 17.8629 11.3521 17.9967 11.4145C18.2642 11.6851 18.7478 12.1741 19.1491 12.1741C19.5662 12.1318 19.9771 12.0411 20.3736 11.9036C20.5034 11.8201 20.6413 11.7503 20.7852 11.6955V11.6851Z" fill="#1B2747"/>
<path fill-rule="evenodd" clip-rule="evenodd" d="M20.7851 13.9535C21.3305 14.3697 21.3922 14.1616 21.67 14.0263C21.9635 13.732 22.2726 13.4541 22.5961 13.1939C23.3472 12.7786 24.1453 12.4572 24.973 12.2366C25.5593 12.0731 26.0965 11.7657 26.5371 11.3418H26.6091C26.6811 11.2065 26.6091 11.0712 26.4753 11.1337C24.9113 11.477 22.1228 11.3418 21.5774 11.7476C21.1088 12.0355 20.6079 12.266 20.0854 12.4343C19.7459 12.5696 19.4063 13.3916 19.8796 13.3916C20.3529 13.3916 20.353 13.5997 20.8263 13.9431L20.7851 13.9535Z" fill="#754090"/>
<path d="M26.7636 10.5821C26.8356 10.5821 26.8973 10.5093 26.9694 10.4469C26.9837 10.26 26.9592 10.0721 26.8973 9.89537C26.8973 9.68727 26.6915 9.47916 26.4858 9.20862C26.3456 9.04667 26.1551 8.93783 25.9456 8.9C25.7362 8.86217 25.5202 8.89762 25.3333 9.00052C25.3333 9.00052 22.8226 10.5821 21.9995 11.0816C21.9995 11.0816 21.9994 11.2168 22.0715 11.2168C23.6524 11.1281 25.2226 10.8983 26.7636 10.5301V10.5821Z" fill="#1B2747"/>
<path d="M20.3839 14.4945C20.5177 14.4945 20.5177 14.2864 20.4559 14.224C20.3942 14.1616 20.1164 13.9535 20.0443 14.0159L19.1594 14.4945C19.0257 14.5674 19.0257 14.6298 19.0874 14.7651C19.1594 14.8379 19.2212 14.9003 19.2932 14.8379L20.3839 14.4945Z" fill="#1B2747"/>
<path fill-rule="evenodd" clip-rule="evenodd" d="M5.968 14.7026C5.89597 14.5673 6.04003 14.4945 6.10177 14.5674C6.36931 14.7026 6.57511 15.1188 6.85293 15.1813C7.03049 15.1724 7.19877 15.0985 7.32625 14.9732C7.43865 14.8512 7.52919 14.7103 7.59379 14.5569C7.66582 14.4841 7.6658 14.4217 7.72753 14.3488C7.78927 14.276 7.86131 14.3488 7.86131 14.4217C7.78928 14.9003 7.8613 15.4622 7.78927 15.9304C7.6921 16.7228 7.32886 17.4575 6.7603 18.0115C6.5545 18.1468 6.34871 18.282 6.21494 18.0843C6.08118 17.8866 6.14294 17.7409 6.14294 17.5328C6.24448 17.1723 6.31334 16.8031 6.34872 16.4299C6.29201 15.8409 6.15345 15.2629 5.93713 14.713L5.968 14.7026Z" fill="#754090"/>
<path d="M7.39832 11.7475H7.32628C7.27609 11.7365 7.22406 11.7371 7.17414 11.7494C7.12422 11.7616 7.0777 11.7851 7.03808 11.8182C6.99845 11.8512 6.96675 11.893 6.94538 11.9402C6.92401 11.9874 6.91353 12.039 6.9147 12.0909C6.97801 12.6537 7.21572 13.1818 7.59383 13.5997C7.59198 13.6096 7.59255 13.6199 7.59552 13.6296C7.59849 13.6393 7.60375 13.6481 7.61085 13.6553C7.61794 13.6624 7.62667 13.6677 7.63625 13.6707C7.64583 13.6738 7.65597 13.6744 7.66583 13.6725V13.5997C7.86369 13.3025 8.0228 12.9807 8.13918 12.6424C8.21121 12.1637 7.66584 11.8828 7.38802 11.7475H7.39832Z" fill="#1B2747"/>
<path fill-rule="evenodd" clip-rule="evenodd" d="M2.98412 7.21086C2.91209 7.00276 3.11789 6.86749 3.25166 7.00276C3.69871 7.42355 4.10844 7.88313 4.47614 8.37625C4.8157 8.85489 5.22729 9.47922 5.56685 9.88502C5.90641 10.2908 6.59582 10.8423 6.59582 11.3938C6.59582 11.6019 5.98871 12.9754 5.71089 13.0482C5.43306 13.1211 5.37133 12.9754 5.2993 12.7777C4.69902 10.8538 3.92398 8.99029 2.98412 7.21086Z" fill="#754090"/>
<path d="M2.17115 6.73222C3.29976 8.35074 4.1712 10.1378 4.75388 12.0285C4.82591 12.2366 4.68184 12.3719 4.54807 12.2366C3.47608 11.3709 2.341 10.5883 1.15248 9.89543C1.15248 9.82259 1.08044 9.76016 1.08044 9.68733C1.23099 9.06098 1.41301 8.4428 1.6258 7.83519C1.77872 7.50839 1.86949 7.15541 1.89334 6.79467C1.89334 6.6594 2.02712 6.58656 2.16088 6.65939V6.73222H2.17115Z" fill="#1B2747"/>
<path d="M8.89033 12.8505V12.9858C8.84744 13.4345 8.68374 13.8628 8.41701 14.224L8.34497 14.2968L8.27294 14.224L8.06716 14.0159C8.0573 14.0177 8.04713 14.0171 8.03755 14.0141C8.02797 14.0111 8.01924 14.0058 8.01215 13.9987C8.00505 13.9915 7.99982 13.9827 7.99685 13.973C7.99388 13.9633 7.99328 13.953 7.99513 13.9431V13.8078C8.16465 13.4603 8.27925 13.0882 8.3347 12.7048C8.40673 12.5696 8.54048 12.4967 8.60221 12.5695L8.86976 12.8401L8.89033 12.8505Z" fill="#1B2747"/>
<path d="M7.33659 13.8806C7.36355 13.9074 7.38405 13.9401 7.39654 13.9762C7.40903 14.0123 7.41314 14.0507 7.4086 14.0887C7.41762 14.0974 7.42482 14.1079 7.42973 14.1196C7.43464 14.1312 7.43717 14.1437 7.43717 14.1563C7.43717 14.169 7.43464 14.1815 7.42973 14.1931C7.42482 14.2047 7.41762 14.2152 7.4086 14.224C7.31154 14.3401 7.18098 14.4226 7.0352 14.46C6.88942 14.4973 6.73575 14.4875 6.59573 14.4321C6.3282 14.3592 6.1224 14.0887 5.91661 13.8806C5.84458 13.8806 5.84457 13.8078 5.78284 13.7453C5.74964 13.6944 5.73193 13.6347 5.73193 13.5736C5.73193 13.5126 5.74964 13.4529 5.78284 13.4019C5.85486 13.3291 5.91658 13.2667 5.98861 13.2667C6.1412 13.0731 6.27883 12.8678 6.40022 12.6528C6.47225 12.5175 6.73978 12.5799 6.81181 12.788C6.92295 13.1873 7.108 13.5615 7.35716 13.891L7.33659 13.8806Z" fill="#1B2747"/>
<path fill-rule="evenodd" clip-rule="evenodd" d="M11.8125 0.478665C11.8845 0.551502 11.2054 1.16541 10.7835 1.43595H10.6498C10.5777 1.50878 10.5777 1.43595 10.516 1.43595C10.3125 1.36389 10.0919 1.35828 9.88508 1.4199C9.6783 1.48151 9.49587 1.60723 9.36356 1.77932C9.11527 2.08612 8.92986 2.43984 8.81817 2.81985C8.62945 3.33707 8.47141 3.86521 8.34485 4.40145C8.26493 4.8942 8.07875 5.36312 7.7995 5.77494H7.59372C7.26789 5.43749 6.9244 5.11794 6.56475 4.81766V4.74483C6.49272 4.67199 6.56473 4.60955 6.63676 4.60955C6.84255 4.40145 7.11009 4.19334 7.38792 3.9228C7.65412 3.51174 7.8815 3.07627 8.06704 2.62215C8.20081 2.20594 8.40659 1.86257 8.54036 1.45676C8.60369 1.28379 8.69403 1.12219 8.8079 0.978113C8.94495 0.827445 9.11499 0.711332 9.3044 0.639056C9.4938 0.566781 9.6973 0.540359 9.89861 0.561909C10.4855 0.482528 11.0764 0.437359 11.6684 0.426636C11.6684 0.426636 11.8022 0.426643 11.8022 0.49948L11.8125 0.478665Z" fill="#00A3D3"/>
<path d="M6.7192 4.25572C6.64718 4.32856 6.58543 4.25572 6.58543 4.18288C6.68676 3.80117 6.68676 3.3992 6.58543 3.01749C6.5354 2.74646 6.51127 2.47118 6.5134 2.19547C6.44137 2.12263 6.5134 2.12264 6.5134 2.06021C6.64716 1.98738 6.7192 2.0602 6.78094 2.19547C6.79809 2.45283 6.84295 2.70754 6.91471 2.95507C6.91631 3.08221 6.9639 3.20436 7.04848 3.29844C7.12051 3.37128 7.12048 3.37127 7.18222 3.37127C7.22863 3.39776 7.26616 3.43767 7.28999 3.48587C7.31383 3.53407 7.32288 3.58838 7.31599 3.64182C7.24377 3.7688 7.15367 3.88446 7.04848 3.98518C6.91472 4.12044 6.84267 4.25572 6.7089 4.25572H6.7192Z" fill="#1B2747"/>
<path d="M8.69481 4.12046H8.6228L9.09612 2.8198C9.22989 2.34116 9.84727 1.37347 10.3206 1.58158C10.7939 1.78968 9.03439 3.43371 8.68454 4.12046H8.69481Z" fill="#1B2747"/>
<path fill-rule="evenodd" clip-rule="evenodd" d="M14.1998 18.0739C14.3287 17.7676 14.4186 17.4459 14.4673 17.1167C14.4561 16.6803 14.4114 16.2454 14.3336 15.816C14.2654 15.4061 14.2654 14.9876 14.3336 14.5778C14.3552 14.3406 14.3088 14.1022 14.1998 13.891C14.1238 13.8058 14.0332 13.7353 13.9323 13.6829C12.2962 12.8609 12.0287 11.8308 12.0287 12.2366C11.8949 13.0586 12.4403 13.1939 12.7078 13.4748C12.9424 13.7207 13.1934 13.9502 13.4589 14.1616C13.531 14.2344 13.6647 14.2968 13.7265 14.4321C13.7899 14.5343 13.8154 14.656 13.7985 14.7755C13.8679 14.9526 13.8679 15.1498 13.7985 15.327C13.7265 15.3998 13.7265 15.4622 13.6647 15.4622C13.603 15.4622 13.531 15.4622 13.531 15.3894C13.0576 14.9732 11.9052 13.3083 11.8332 13.735C11.7611 14.1616 10.8042 14.0783 10.8042 14.0783C10.8042 14.0783 11.6171 14.8379 11.8949 15.1813C12.2638 15.6143 12.5218 16.1325 12.646 16.69C12.7583 17.2338 12.8032 17.7895 12.7798 18.3445C12.7116 18.5682 12.7116 18.8075 12.7798 19.0312C12.7798 19.1041 12.7078 19.8532 13.1914 19.7908C13.675 19.7284 14.138 18.282 14.2204 18.0739H14.1998Z" fill="#E31145"/>
<path d="M11.2054 11.7475C10.66 11.4041 10.9379 13.0482 11.1334 13.6725C11.1688 13.711 11.2158 13.7366 11.2671 13.7453H11.3392C11.5283 13.4875 11.6229 13.1711 11.6067 12.8505C11.6067 12.8505 11.7405 12.0285 11.1951 11.7475H11.2054Z" fill="#1B2747"/>
<path d="M15.2803 14.4944L15.414 14.6297V14.8378L15.2803 15.4517C15.2743 15.4724 15.2636 15.4914 15.2489 15.5071C15.2342 15.5228 15.2161 15.5347 15.1959 15.5418C15.1758 15.5489 15.1542 15.5511 15.1331 15.5481C15.112 15.5451 15.0919 15.537 15.0745 15.5245C15.0457 15.5106 15.0133 15.5061 14.9818 15.5115C14.9504 15.517 14.9214 15.5322 14.8988 15.555C14.8762 15.5778 14.8612 15.6072 14.8558 15.639C14.8504 15.6708 14.8549 15.7035 14.8686 15.7326C14.8743 15.9008 14.9202 16.065 15.0024 16.2113C15.1388 16.7999 15.1388 17.4124 15.0024 18.001C14.8781 18.5586 14.6202 19.0767 14.2513 19.5098C14.0445 19.7636 13.7889 19.9724 13.5001 20.1237C13.3664 20.1237 13.2326 20.1237 13.5722 19.7803C14.02 19.3456 14.3891 18.8349 14.6629 18.2715C14.8334 17.892 14.9156 17.4779 14.9031 17.0612C14.8906 16.6446 14.7838 16.2363 14.5908 15.8679C14.5211 15.5036 14.5211 15.1292 14.5908 14.7649C14.6484 14.5872 14.6729 14.4002 14.6629 14.2135C14.6629 14.0782 14.7966 14.0782 14.8686 14.1406L15.2803 14.4944Z" fill="#1B2747"/>
<path fill-rule="evenodd" clip-rule="evenodd" d="M4.13636 15.5245C3.49769 15.2176 2.90247 14.8256 2.36652 14.3591C2.3147 14.2571 2.24499 14.1654 2.16075 14.0886C2.10387 13.9359 2.07932 13.7729 2.08871 13.61C2.07394 13.5137 2.07816 13.4154 2.10112 13.3207C2.12407 13.2261 2.16532 13.1369 2.22248 13.0585L2.63407 12.8504C2.83116 12.7928 3.03622 12.7682 3.24116 12.7776C3.32422 12.7924 3.40347 12.824 3.47419 12.8704C3.5449 12.9169 3.60563 12.9773 3.65274 13.0481C3.72477 13.1834 3.72477 13.3186 3.78651 13.3915C3.85867 13.6167 3.97405 13.8253 4.12606 14.0054C4.33217 14.2959 4.55916 14.5706 4.80518 14.8274C4.93895 14.9627 5.14476 15.0979 5.27853 15.2436C5.4123 15.3893 5.48431 15.3789 5.48431 15.4517C5.48431 15.5245 5.55633 16.1385 4.12606 15.5245H4.13636Z" fill="#00A3D3"/>
<path d="M2.09902 12.9128L1.96528 13.0481H1.8315C1.74727 12.9713 1.67752 12.8796 1.6257 12.7776C1.50565 12.4896 1.41597 12.1897 1.35815 11.8827C1.35815 11.7474 1.35816 11.6122 1.49193 11.5393C1.62569 11.4665 1.75948 11.4041 1.90354 11.4041C2.0476 11.4041 2.10931 11.5393 2.17105 11.6122C2.39044 11.8203 2.5534 12.0818 2.64437 12.3717C2.85016 12.5799 2.30481 12.6423 2.09902 12.9232V12.9128Z" fill="#1B2747"/>
<path d="M1.28624 12.9859C1.42001 13.1211 1.49202 13.2564 1.62579 13.4021C1.75956 13.5477 1.69783 13.5373 1.69783 13.6102C1.69783 13.683 1.62579 13.8183 1.56406 13.8183H1.43028C1.33312 13.7885 1.24474 13.7349 1.17295 13.6623C1.10115 13.5897 1.04817 13.5003 1.0187 13.4021C0.825634 13.1106 0.686207 12.7863 0.607119 12.4448C0.517375 12.2536 0.492067 12.038 0.535083 11.8309C0.535083 11.758 0.607124 11.5603 0.74089 11.6956C0.874657 11.8309 1.00842 12.6529 1.28624 12.9963V12.9859Z" fill="#1B2747"/>
<path d="M4.54806 15.941C4.1767 15.8889 3.8235 15.746 3.51909 15.5247C2.92987 15.2081 2.40044 14.789 1.95507 14.2865L1.74926 14.0784C1.71173 14.083 1.67368 14.0788 1.638 14.0662C1.60232 14.0536 1.56999 14.0328 1.54348 14.0056C1.36981 13.975 1.20569 13.9035 1.06445 13.7969C0.923216 13.6902 0.808843 13.5514 0.730588 13.3917C0.634609 13.056 0.496281 12.7343 0.319005 12.4344C0.319005 12.3615 0.246972 12.2991 0.185234 12.3615L0.113198 12.4344C0.0497422 12.549 0.0105741 12.6757 -0.00182622 12.8065C-0.0142265 12.9373 0.000404849 13.0692 0.0411627 13.194C0.118364 13.3975 0.26414 13.567 0.452777 13.6726C0.734239 13.8642 0.98716 14.0954 1.20391 14.3593C1.53073 14.8683 1.97132 15.2925 2.49012 15.5976C3.412 16.1725 4.51616 16.3697 5.57704 16.1491C5.58937 16.1314 5.59736 16.1111 5.60034 16.0897C5.60331 16.0684 5.60117 16.0466 5.59412 16.0262C5.58707 16.0058 5.5753 15.9875 5.5598 15.9726C5.5443 15.9578 5.52553 15.9469 5.50503 15.941C5.16554 16.011 4.81555 16.011 4.47606 15.941H4.54806Z" fill="#1B2747"/>
<path d="M12.0905 1.98737C12.0184 1.8521 11.9567 1.85211 11.8846 1.85211C11.6923 1.90774 11.5251 2.02908 11.4113 2.19547C11.3431 2.41919 11.3431 2.6585 11.4113 2.88222C11.6802 4.52042 12.1611 6.11571 12.8416 7.62702C12.9965 7.3719 13.0894 7.0833 13.1126 6.78486C13.1359 6.48642 13.0888 6.18665 12.9754 5.91016C12.7431 5.34914 12.5404 4.77605 12.3683 4.19329C12.2766 3.78744 12.2522 3.36899 12.2962 2.95507C12.3302 2.72744 12.3302 2.49594 12.2962 2.26832C12.2444 2.16628 12.1747 2.07461 12.0905 1.99778V1.98737Z" fill="#1B2747"/>
<path d="M12.7696 8.24097C12.6636 8.39962 12.5233 8.53174 12.3592 8.62731C12.1952 8.72287 12.0118 8.77935 11.8229 8.79244C11.4626 8.85339 11.0973 8.87778 10.7322 8.86527C10.734 8.87524 10.7334 8.88553 10.7305 8.89522C10.7275 8.90491 10.7223 8.91372 10.7152 8.92089C10.7081 8.92806 10.6994 8.93339 10.6898 8.93639C10.6802 8.93939 10.67 8.93998 10.6602 8.93812C10.5881 9.01095 10.5881 9.07338 10.6602 9.20865C10.741 9.36252 10.8098 9.52257 10.866 9.6873C10.8641 9.69727 10.8647 9.70754 10.8677 9.71723C10.8706 9.72692 10.8759 9.73573 10.883 9.7429C10.8901 9.75007 10.8988 9.75539 10.9084 9.75839C10.918 9.7614 10.9281 9.76199 10.938 9.76013H11.0717C11.3837 9.69203 11.7065 9.69203 12.0184 9.76013C12.358 9.76013 12.6255 9.89539 12.9033 9.76013L13.0371 9.62487V8.73002C13.0531 8.61058 13.0277 8.4892 12.9651 8.38664C12.9463 8.34722 12.9171 8.31377 12.8809 8.28992C12.8446 8.26607 12.8025 8.25273 12.7593 8.25137L12.7696 8.24097Z" fill="#1B2747"/>
<path fill-rule="evenodd" clip-rule="evenodd" d="M11.6172 10.0723C11.4834 10.0723 11.3497 10.0723 11.2776 10.2076C11.2056 10.3428 11.2776 10.4157 11.3497 10.5509C11.6187 10.9826 11.9682 11.3572 12.3786 11.6539C12.5124 11.7267 12.7182 11.7892 12.852 11.6539C12.9857 11.5186 12.9857 11.3105 12.924 11.1752C12.9205 10.9837 12.8748 10.7953 12.7902 10.6238C12.7816 10.5719 12.7562 10.5244 12.7182 10.4885C12.7268 10.4366 12.7522 10.3891 12.7902 10.3532V10.2804C12.7869 10.2196 12.7655 10.1612 12.7288 10.1129C12.692 10.0646 12.6417 10.0287 12.5844 10.0099C12.2672 10.0002 11.9499 10.0246 11.6378 10.0827L11.6172 10.0723Z" fill="#E10585"/>
<path fill-rule="evenodd" clip-rule="evenodd" d="M10.2486 8.38661C10.2545 8.40734 10.2653 8.42633 10.2799 8.44201C10.2946 8.45768 10.3128 8.46958 10.3329 8.47671C10.353 8.48384 10.3746 8.48599 10.3957 8.48298C10.4168 8.47998 10.437 8.47191 10.4544 8.45944C10.631 8.40516 10.8152 8.38056 10.9997 8.38661C11.3012 8.41492 11.6049 8.36849 11.8846 8.25134C11.9427 8.24139 11.9974 8.21722 12.044 8.18094C12.0906 8.14466 12.1278 8.09738 12.1522 8.04324C12.1522 7.9704 12.0801 7.90797 12.0801 7.83513C11.721 7.07854 11.4913 6.26579 11.401 5.43151C11.401 5.29624 11.329 5.16097 11.1952 5.16097C11.1854 5.15911 11.1752 5.1597 11.1656 5.16271C11.1561 5.16571 11.1473 5.17103 11.1402 5.1782C11.1331 5.18537 11.1279 5.19418 11.1249 5.20387C11.1219 5.21357 11.1214 5.22385 11.1232 5.23382C10.9427 5.45034 10.8251 5.7133 10.7836 5.9934C10.6499 6.47204 10.5779 6.88824 10.4441 7.36688C10.3721 7.63742 10.3103 7.84554 10.2383 8.12648V8.39701L10.2486 8.38661Z" fill="#E10585"/>
<path d="M11.2055 4.05805V3.82913L10.9997 2.5909C10.9277 2.51806 10.9277 2.45563 10.8659 2.45563H10.7939C10.6555 2.64489 10.5414 2.85119 10.4544 3.06955C10.31 3.68193 10.3349 4.32266 10.5264 4.92168C10.5984 4.92168 10.5984 5.05694 10.6601 4.99451C10.7219 4.93208 11.2055 4.44304 11.2055 4.03723V4.05805Z" fill="#1B2747"/>
<path d="M10.2486 5.28598C10.1765 5.42125 9.98103 5.55652 9.83697 5.7022C9.67266 5.90288 9.49007 6.08751 9.29162 6.25367C9.21959 6.32651 9.15784 6.32652 9.08581 6.38895C8.95205 6.38895 8.88001 6.25367 8.95204 6.18083C9.02407 6.10799 9.08582 5.97273 9.15785 5.9103C9.22988 5.84787 9.70321 5.22355 9.97075 4.86977C10.1045 4.73451 10.2383 4.79694 10.3103 4.94262C10.3272 5.06209 10.3017 5.18375 10.2383 5.28598H10.2486Z" fill="#1B2747"/>
<path d="M12.9753 2.1955C12.9654 2.19736 12.9553 2.19677 12.9457 2.19377C12.9361 2.19077 12.9274 2.18546 12.9203 2.17829C12.9132 2.17111 12.908 2.1623 12.905 2.15261C12.902 2.14292 12.9014 2.13264 12.9033 2.12267H12.8313C12.8194 1.57576 12.9358 1.03377 13.1708 0.541065C13.2428 0.468229 13.3766 0.468236 13.3766 0.61391C13.3537 1.15041 13.2638 1.68181 13.1091 2.1955C13.1091 2.26833 12.9753 2.26833 12.9753 2.1955Z" fill="#1B2747"/>
<path d="M15.3934 0.707578C15.3903 0.671252 15.3951 0.634673 15.4074 0.600408C15.4197 0.566142 15.4393 0.535026 15.4648 0.509241C15.4903 0.483456 15.5211 0.463618 15.555 0.451146C15.5889 0.438674 15.6251 0.43387 15.661 0.437047L16.2063 0.572305C16.3401 0.572305 16.4121 0.572313 16.4739 0.645149C16.5403 0.705191 16.5931 0.779061 16.6286 0.861682C16.6641 0.944303 16.6815 1.03371 16.6797 1.12378C16.6897 1.26639 16.6649 1.40931 16.6076 1.54C16.53 1.78611 16.4851 2.04152 16.4739 2.29958C16.4739 2.37242 16.4739 2.43485 16.4018 2.43485C16.3298 2.43485 16.3298 2.43485 16.2681 2.43485C15.9443 2.3046 15.6776 2.06082 15.5169 1.7481C15.3954 1.41588 15.3497 1.06018 15.3831 0.707578H15.3934Z" fill="#1B2747"/>
<path d="M13.6543 0.270531C13.5823 0.135263 13.7881 0 13.9219 0C14.1411 0.0914298 14.3685 0.161122 14.601 0.208102C14.673 0.280939 14.673 0.280931 14.7347 0.280931C14.7982 0.38316 14.8237 0.504835 14.8068 0.624306C14.7742 1.00408 14.8454 1.38561 15.0126 1.72726C15.1852 2.00479 15.4173 2.23951 15.6917 2.41401C15.8255 2.54928 16.0313 2.62211 16.1033 2.83022V2.90306H16.0313C15.8539 2.98382 15.6718 3.05332 15.4859 3.11116C15.2962 3.23481 15.1349 3.398 15.0126 3.58981C14.8788 3.79792 14.8068 4.06844 14.673 4.27655C14.5392 4.48465 14.5393 4.54709 14.3335 4.54709C14.1277 4.54709 14.0659 4.47426 13.9219 4.33899C13.7504 4.06678 13.6349 3.76245 13.5823 3.44414L13.3765 3.02792C13.3045 3.02792 13.3045 2.95509 13.3765 2.89266C13.6328 2.04796 13.7236 1.16081 13.644 0.280931L13.6543 0.270531Z" fill="#F27E04"/>
<path d="M15.0746 4.67197C14.807 5.22344 14.735 5.83735 14.4675 6.3264C14.2908 6.6879 14.0878 7.03569 13.8604 7.36692C13.8604 7.43976 13.7884 7.57504 13.8604 7.63747C13.8869 7.66473 13.9192 7.68546 13.9549 7.69809C13.9906 7.71072 14.0286 7.7149 14.0662 7.7103C14.1382 7.7103 14.1999 7.63747 14.272 7.57504L14.6835 7.15882C15.1111 6.58232 15.4767 5.96145 15.7743 5.30669C15.9499 4.89231 16.0643 4.45407 16.1138 4.00603C16.1138 3.87076 15.9801 3.79792 15.908 3.87076C15.5886 4.09087 15.3128 4.36972 15.0951 4.69278L15.0746 4.67197Z" fill="#1B2747"/>
<path d="M14.5395 5.15059C14.462 5.7318 14.277 6.29305 13.9942 6.80502C13.9221 6.87786 13.9221 6.94029 13.7883 7.01313C13.7163 7.01313 13.7163 6.87786 13.7163 6.80502C13.8622 6.26093 13.9756 5.70846 14.0559 5.15059C14.1279 5.01532 14.1896 5.01532 14.3234 5.01532C14.4572 5.01532 14.4572 5.08816 14.5292 5.15059H14.5395Z" fill="#1B2747"/>
<path d="M17.5954 1.10295C17.6674 1.10295 17.7292 1.10294 17.7292 1.17578C17.7672 1.21164 17.7925 1.25918 17.8012 1.31105C17.7894 1.54527 17.7443 1.77656 17.6674 1.9978C17.5843 2.32701 17.4706 2.64753 17.3279 2.95508L17.2558 3.02791C17.1838 3.10075 17.1221 3.02791 17.05 3.02791C16.978 3.02791 16.9163 2.95508 16.8443 2.95508L16.7722 2.88224V2.7886C16.8442 2.37239 16.906 1.89374 16.978 1.48794C16.978 1.35267 17.05 1.21741 17.05 1.07174C17.05 0.926062 17.2558 0.863625 17.3176 0.936462C17.3793 1.0093 17.5234 1.0093 17.5851 1.07174L17.5954 1.10295Z" fill="#1B2747"/>
<path d="M16.2989 4.86965C15.8597 6.01974 15.2144 7.07798 14.3953 7.99123C14.3953 8.06406 14.5291 8.06407 14.6011 8.06407C14.6732 8.06407 14.7349 7.99123 14.8069 7.9288C15.264 7.48742 15.6525 6.97876 15.9593 6.42004C16.0587 6.1844 16.1721 5.95506 16.2989 5.73329C16.5554 5.00435 16.6944 4.23846 16.7105 3.46493C16.7105 3.32966 16.5767 3.32967 16.5767 3.3921C16.5047 3.66264 16.371 4.63033 16.3092 4.83843L16.2989 4.86965Z" fill="#F27E04"/>
<path d="M11.2774 19.51C11.285 19.4141 11.2596 19.3185 11.2054 19.2394C10.8115 18.8323 10.5712 18.2984 10.5263 17.7307C10.5308 17.6927 10.5267 17.6542 10.5142 17.6182C10.5017 17.5821 10.4812 17.5494 10.4543 17.5226C10.3182 17.3467 10.125 17.225 9.9089 17.1792C9.83687 17.1792 9.83687 17.1792 9.77513 17.252C9.71339 17.3249 9.7031 17.3249 9.64136 17.3873C9.46239 17.8696 9.37173 18.3809 9.37381 18.8961C9.44584 19.4475 9.64136 20.6129 10.3205 20.821C10.5263 20.8939 10.9996 19.9262 11.2671 19.5204L11.2774 19.51Z" fill="#1B2747"/>
<path d="M10.9997 18.4797C10.7917 18.1525 10.6975 17.7643 10.7322 17.3768C10.7322 17.304 10.8042 17.3768 10.8042 17.3768C10.872 17.5068 10.9626 17.6231 11.0717 17.7202C11.2775 17.9283 11.6789 17.9907 11.9567 18.1988C12.1103 18.3431 12.2483 18.5036 12.3683 18.6775V18.7503C12.3701 18.7603 12.3695 18.7705 12.3666 18.7802C12.3636 18.7899 12.3583 18.7987 12.3512 18.8059C12.3442 18.8131 12.3354 18.8184 12.3258 18.8214C12.3163 18.8244 12.3061 18.825 12.2962 18.8231C12.2242 18.9584 12.1625 18.9584 12.0287 19.0937C11.9907 19.1295 11.9653 19.1771 11.9567 19.2289C11.9194 19.2612 11.872 19.2789 11.8229 19.2789C11.7739 19.2789 11.7264 19.2612 11.6891 19.2289C11.4242 19.0139 11.1949 18.7575 11.01 18.4693L10.9997 18.4797Z" fill="#1B2747"/>
<path d="M10.4544 15.3894C10.556 15.125 10.556 14.8317 10.4544 14.5674C10.3823 14.4945 10.3206 14.4321 10.2486 14.4321C10.1765 14.4321 10.0428 14.2968 9.98102 14.3592C9.91928 14.4217 9.84727 14.4321 9.77524 14.4945C9.26564 14.9889 8.93268 15.6403 8.82857 16.3466C8.69481 17.0334 8.48903 18.8855 8.48903 18.9584C8.49904 19.101 8.4743 19.2439 8.41699 19.3746C8.41699 19.5098 8.417 19.7179 8.48903 19.7908C8.56106 19.8636 8.6948 19.9989 8.75654 20.0613C8.81828 20.1238 9.0241 20.1342 9.16815 20.1966C9.31221 20.259 9.30189 20.1237 9.30189 19.9885C9.23927 19.8859 9.21384 19.7645 9.22989 19.6451C9.15786 19.5098 8.62277 18.6878 9.4974 16.8981C9.56943 16.7629 9.83698 16.8981 9.97075 16.971C10.1045 17.0438 10.3823 17.2415 10.4441 17.1062C10.5058 16.971 10.372 15.9408 10.4441 15.3894H10.4544Z" fill="#F27E04"/>
<path d="M9.71362 14.0887H9.57985C9.24537 14.2621 8.96423 14.5248 8.76695 14.8483C8.51807 15.2009 8.3334 15.5956 8.2216 16.0137C8.14381 16.306 8.09893 16.6061 8.08783 16.9086C8.12221 17.2545 8.12221 17.6031 8.08783 17.9491C8.08669 18.0014 8.07412 18.0528 8.05099 18.0996C8.02786 18.1463 7.99474 18.1873 7.95405 18.2196H7.88205V18.2925C7.79849 18.537 7.75335 18.7934 7.74828 19.0521C7.69097 19.1827 7.66623 19.3257 7.67624 19.4683C7.77685 19.6767 7.94344 19.8452 8.14956 19.9469H8.19073C8.26276 19.8741 8.26276 19.8741 8.26276 19.8116C8.25401 19.2142 8.27807 18.6167 8.3348 18.0219C8.319 17.2569 8.40903 16.4934 8.60231 15.7536C8.80457 15.1665 9.18663 14.6598 9.69302 14.3073C9.73321 14.2731 9.75898 14.2247 9.76505 14.172L9.71362 14.0887Z" fill="#1B2747"/>
<path fill-rule="evenodd" clip-rule="evenodd" d="M21.5672 7.07561C21.701 7.28371 21.6393 7.55425 21.701 7.76236C21.7097 7.81423 21.735 7.86177 21.773 7.89763C21.7843 7.9148 21.7996 7.92888 21.8175 7.93862C21.8355 7.94837 21.8555 7.95347 21.8759 7.95347C21.8963 7.95347 21.9164 7.94837 21.9343 7.93862C21.9523 7.92888 21.9675 7.9148 21.9788 7.89763C22.0508 7.89763 22.1846 7.82479 22.2464 7.82479C22.3081 7.82479 22.5139 7.96006 22.4521 8.09533C21.8622 8.9748 21.0381 9.66744 20.0752 10.0931C19.8722 10.2245 19.6371 10.2965 19.3961 10.3012C19.2624 10.3741 19.1903 10.3741 19.1286 10.3012C19.0603 10.2599 19.0092 10.195 18.9846 10.1185C18.96 10.042 18.9636 9.95905 18.9948 9.88504C19.781 9.02318 20.4021 8.02114 20.8264 6.92993L20.8984 6.8571C20.8984 6.72184 21.1042 6.64899 21.238 6.72183C21.3824 6.79962 21.5006 6.91917 21.5775 7.06521L21.5672 7.07561Z" fill="#E31145"/>
<path d="M21.5671 6.52408C22.1742 6.1807 22.2463 5.3587 22.7916 4.94249C22.8494 4.89781 22.917 4.86786 22.9886 4.85518C23.0602 4.8425 23.1339 4.84746 23.2032 4.86965C23.2439 4.90194 23.277 4.94295 23.3001 4.98973C23.3232 5.03651 23.3358 5.08789 23.337 5.14018C23.361 5.22034 23.367 5.30493 23.3546 5.38775C23.3421 5.47057 23.3115 5.54952 23.2649 5.61883C23.1463 6.02759 22.9389 6.40441 22.6578 6.72178C22.5241 6.99232 22.2463 7.20042 22.2463 7.48136V7.61663C22.1743 7.60355 22.1048 7.57897 22.0405 7.5438C21.9067 7.27327 21.9067 7.06516 21.7009 6.85705C21.7009 6.78422 21.6289 6.72179 21.5671 6.64895V6.51368V6.52408Z" fill="#1B2747"/>
<path d="M24.6541 5.62922C24.7166 5.73568 24.7618 5.85162 24.7879 5.97259C24.7347 6.09581 24.6655 6.21129 24.5821 6.31597C24.4554 6.54816 24.2664 6.73936 24.0367 6.86744L23.9647 6.94029C23.8927 6.94029 23.8927 6.86744 23.831 6.86744C23.6313 6.61052 23.5129 6.29864 23.4914 5.97259C23.5073 5.65676 23.5992 5.34961 23.7589 5.07774C23.831 5.0049 23.831 4.94248 23.8927 4.94248C23.93 4.91024 23.9774 4.89252 24.0265 4.89252C24.0755 4.89252 24.1229 4.91024 24.1602 4.94248C24.3374 5.15708 24.4958 5.38685 24.6336 5.62922H24.6541Z" fill="#1B2747"/>
<path d="M25.004 6.52409C25.0244 6.50534 25.0492 6.4921 25.076 6.48555C25.1028 6.479 25.1308 6.47937 25.1575 6.48662C25.1841 6.49387 25.2085 6.50777 25.2285 6.52704C25.2484 6.54631 25.2632 6.57035 25.2716 6.59693C25.3417 6.67172 25.3882 6.76588 25.4053 6.86746C25.3333 6.9403 25.2716 7.07556 25.1995 7.13799C24.7879 7.5542 24.1706 7.82475 23.7693 8.24096C23.5233 8.49774 23.2963 8.77248 23.0902 9.06297C22.6168 9.47918 22.1435 9.88498 21.6599 10.2284C21.2665 10.4833 20.8576 10.7127 20.4354 10.9151C20.1002 11.0201 19.7416 11.0201 19.4064 10.9151C19.3717 10.9127 19.3391 10.8977 19.3145 10.8728C19.2899 10.8479 19.275 10.8149 19.2726 10.7798C19.2726 10.707 19.3447 10.707 19.4064 10.707C20.3724 10.5314 21.2685 10.0801 21.9891 9.40635C22.6429 8.73035 23.3298 8.08789 24.0471 7.48137C24.3749 7.19506 24.6716 6.87414 24.932 6.52409H25.004Z" fill="#1B2747"/>
<path d="M23.2342 6.46168C23.0284 6.46168 22.6888 7.2837 22.8226 7.69991C22.8226 7.77275 22.8226 7.83518 22.8946 7.83518H22.9666C23.0787 7.78101 23.1786 7.70409 23.26 7.60922C23.3414 7.51435 23.4027 7.40355 23.44 7.28371C23.512 7.0756 23.512 6.38885 23.2342 6.46168Z" fill="#1B2747"/>
<path fill-rule="evenodd" clip-rule="evenodd" d="M16.299 22.5586C16.5205 22.6167 16.7494 22.6412 16.9781 22.6314L17.7292 22.4233C17.8297 22.406 17.9228 22.3589 17.9968 22.288C18.2643 22.1528 18.4083 21.8094 18.5421 21.6013C18.6759 21.3932 19.2933 21.466 19.6328 21.2579C19.7666 21.1851 19.7666 20.9874 19.8386 20.9145C19.9106 20.8417 19.8386 20.8417 19.9107 20.7793H20.0444C20.3119 20.7064 20.5898 20.7064 20.7956 20.644C20.9648 20.6245 21.1348 20.673 21.2689 20.7793C21.2734 20.8172 21.2693 20.8557 21.2568 20.8918C21.2443 20.9279 21.2238 20.9606 21.1969 20.9874C20.7235 22.7042 17.5234 23.2557 17.1839 23.3286C17.0801 23.3857 16.9621 23.411 16.8443 23.4014C16.7105 23.4014 16.6385 23.3285 16.5047 23.2661C16.371 23.2037 16.371 23.058 16.299 22.9956C16.2269 22.9332 16.2269 22.517 16.299 22.5794V22.5586Z" fill="#00A3D3"/>
<path d="M16.1651 22.1945C16.0931 22.1217 16.1651 21.924 16.2371 21.924C16.9381 21.9689 17.6338 21.7747 18.2127 21.3725C18.3465 21.2372 18.2127 20.9563 18.4185 20.9563C18.7606 20.9916 19.1054 20.9916 19.4475 20.9563C19.4988 20.9651 19.5458 20.9906 19.5813 21.0291C19.5093 21.102 19.5092 21.1644 19.4475 21.1644C19.1796 21.2267 18.9081 21.2719 18.6346 21.2997C18.4288 21.3725 18.3671 21.643 18.1613 21.9136C17.9555 22.1841 17.2146 22.3922 17.0089 22.4651C16.8031 22.5379 16.3297 22.465 16.196 22.1945H16.1651Z" fill="#1B2747"/>
<path d="M16.7826 23.776C16.7807 23.7661 16.7813 23.7558 16.7842 23.7461C16.7872 23.7364 16.7925 23.7276 16.7996 23.7204C16.8067 23.7132 16.8154 23.7079 16.825 23.7049C16.8346 23.7019 16.8447 23.7013 16.8546 23.7032C17.8877 23.5093 18.8933 23.1878 19.8489 22.7459C20.5702 22.3997 21.1308 21.7843 21.4129 21.029C21.4129 20.8938 21.5467 21.1019 21.5467 21.1019C21.5637 21.1133 21.5776 21.1287 21.5872 21.1469C21.5969 21.165 21.6019 21.1853 21.6019 21.2059C21.6019 21.2265 21.5969 21.2468 21.5872 21.265C21.5776 21.2831 21.5637 21.2986 21.5467 21.31C21.2583 22.0224 20.7297 22.6086 20.0547 22.9644C19.2631 23.3279 18.4442 23.6271 17.6057 23.8593C17.1324 24.0674 16.9266 23.9321 16.7928 23.7864L16.7826 23.776Z" fill="#1B2747"/>
<path d="M18.2745 16.9085C18.3466 16.7733 18.4803 16.7733 18.4803 16.8357C18.7656 17.2513 18.9715 17.7171 19.0874 18.2092C19.1219 18.2597 19.1404 18.3195 19.1404 18.3809C19.1404 18.4422 19.1219 18.5021 19.0874 18.5526C19.0874 18.6254 19.0154 18.6254 18.9537 18.6878C18.654 18.9293 18.3009 19.0935 17.9247 19.1665C17.8526 19.1665 17.8527 19.1665 17.8527 19.0936C17.7195 18.7241 17.6875 18.3251 17.7599 17.9387C17.8324 17.5522 18.0066 17.1928 18.2643 16.8981L18.2745 16.9085Z" fill="#1B2747"/>
<path fill-rule="evenodd" clip-rule="evenodd" d="M18.2745 15.8056L18.3466 16.2218C18.3511 16.2597 18.347 16.2982 18.3345 16.3343C18.322 16.3704 18.3015 16.4031 18.2745 16.4299C18.0099 16.6373 17.8186 16.9256 17.7292 17.2519C17.581 17.6933 17.5353 18.1633 17.5955 18.6254V18.9688C17.5436 19.0708 17.4739 19.1625 17.3896 19.2393C17.1221 19.4474 16.1652 19.5099 15.8976 18.8959C15.8256 18.8231 15.8256 18.7607 15.8256 18.6254C15.8256 18.4901 16.0931 17.8034 16.1652 17.46C16.2372 17.1167 16.2372 16.7733 16.2372 16.5652C16.2396 16.5301 16.2544 16.4971 16.279 16.4722C16.3036 16.4474 16.3363 16.4323 16.371 16.4299L18.007 15.6703C18.1408 15.5975 18.2745 15.6703 18.2745 15.8056Z" fill="#E10585"/>
<path d="M15.9593 19.5826C16.0931 19.6554 16.5047 19.6554 16.6384 19.7178C16.7722 19.7803 16.7722 19.9884 16.6384 20.1341C16.2793 20.4427 15.863 20.6761 15.414 20.8208C14.98 20.9833 14.5178 21.0541 14.0557 21.0289C13.9837 20.9561 13.8499 20.6855 14.1895 20.4774C14.694 20.184 15.1321 19.7871 15.4757 19.312C15.4738 19.3021 15.4745 19.2918 15.4774 19.2821C15.4804 19.2724 15.4856 19.2636 15.4927 19.2564C15.4998 19.2493 15.5085 19.2439 15.5181 19.2409C15.5277 19.2379 15.5379 19.2373 15.5477 19.2392C15.5477 19.1664 15.6815 19.1664 15.6815 19.2392C15.7344 19.3783 15.8277 19.498 15.949 19.5826H15.9593Z" fill="#1B2747"/>
<path d="M19.5093 19.1665V19.2393C19.5112 19.2493 19.5106 19.2596 19.5076 19.2693C19.5046 19.279 19.4994 19.2878 19.4923 19.295C19.4852 19.3021 19.4765 19.3075 19.4669 19.3105C19.4573 19.3135 19.4471 19.314 19.4373 19.3122C19.0238 19.6313 18.5661 19.8872 18.079 20.0718C18.079 20.1446 18.007 20.1446 17.9453 20.1446C17.8836 20.1446 17.8115 19.8012 17.8733 19.7284C17.935 19.6556 18.0791 19.5203 18.1408 19.4579C18.5268 19.3381 18.8794 19.1277 19.1698 18.8439C19.2418 18.7711 19.3755 18.7711 19.3755 18.8439C19.3755 18.9168 19.5093 19.052 19.5093 19.1873V19.1665Z" fill="#1B2747"/>
<path d="M17.6572 19.7908C17.3897 19.9989 17.1118 20.3423 16.8443 20.5504C16.0528 21.119 15.098 21.4079 14.1278 21.3724C13.994 21.4452 13.994 21.1643 14.1278 21.1643C14.7042 21.164 15.2771 21.0727 15.8256 20.8937C16.5047 20.6232 16.9781 19.9364 17.6572 19.7283C17.6572 19.6555 17.7292 19.6555 17.7292 19.7283L17.6572 19.7908Z" fill="#1B2747"/>
<path fill-rule="evenodd" clip-rule="evenodd" d="M3.52938 17.1792C3.39562 17.5226 3.18983 17.7931 3.05606 18.1365C2.98468 18.2886 2.95375 18.4569 2.96638 18.6248C2.97901 18.7927 3.03474 18.9543 3.12807 19.0938C3.26183 19.3019 3.46765 19.3643 3.60142 19.51C3.87977 19.7102 4.11155 19.9694 4.28054 20.2696C4.46644 20.6807 4.694 21.0713 4.95964 21.4349C5.35943 21.7716 5.87048 21.9426 6.38992 21.9136C6.94383 21.8678 7.48994 21.7524 8.01568 21.5702C8.08771 21.4974 8.22148 21.3621 8.14946 21.2268C7.86553 20.9182 7.51272 20.6827 7.12048 20.5401C7.12048 20.4672 7.04845 20.4673 6.98671 20.4673C6.92497 20.4673 6.78093 20.4673 6.64716 20.4673C6.38354 20.5048 6.11509 20.4873 5.85845 20.4157C5.6018 20.3441 5.36242 20.22 5.15514 20.051C4.74763 19.7194 4.4233 19.2951 4.20851 18.8128C4.01036 18.2988 3.85212 17.77 3.73519 17.2312L3.60142 17.0959L3.52938 17.1688V17.1792Z" fill="#E10585"/>
<path d="M4.34227 17.1062C4.2085 17.1791 4.2085 17.2415 4.2085 17.3144C4.21218 17.962 4.4254 18.5905 4.81559 19.1041C4.99115 19.4394 5.25004 19.7227 5.56675 19.9261C5.86235 20.1532 6.22448 20.2741 6.59572 20.2695C6.66775 20.2695 6.72947 20.1966 6.80149 20.1342C6.79284 20.0823 6.76752 20.0348 6.72946 19.9989C6.31787 19.5827 5.9166 19.2393 5.50501 18.8335C5.13347 18.4311 4.83401 17.9663 4.62008 17.46C4.54805 17.3248 4.41427 17.0438 4.35254 17.1167L4.34227 17.1062Z" fill="#1B2747"/>
<path d="M3.18994 19.5099C3.26848 19.8514 3.31326 20.1999 3.32368 20.5504C3.30674 20.6699 3.33227 20.7915 3.39572 20.8938C3.46774 20.8938 3.46775 20.9666 3.52949 20.9666H3.66326C3.66326 20.8938 3.66327 20.8938 3.73529 20.8938C3.73529 20.6857 3.8073 20.5504 3.8073 20.3423V20.0718C3.8073 19.9989 3.80732 19.9989 3.73529 19.9365C3.63089 19.7457 3.46325 19.5984 3.26195 19.5203C3.26195 19.5203 3.18994 19.4475 3.18994 19.5203V19.5099Z" fill="#1B2747"/>
<path d="M25.7448 14.3593C25.7448 14.2241 25.6111 14.1513 25.4773 14.2241C25.105 14.4651 24.6886 14.6279 24.2528 14.7027C24.0415 14.6834 23.8295 14.7307 23.6457 14.838C23.4399 14.9108 23.3782 15.1085 23.2341 15.2542C22.8813 15.6587 22.5645 16.0939 22.2875 16.5549C22.2155 16.6277 22.2154 16.763 22.4212 16.763C22.8458 16.6881 23.2537 16.5365 23.6251 16.3155C23.8586 16.1092 24.11 15.9246 24.3763 15.7641C24.7159 15.556 25.1275 15.556 25.467 15.3479C25.8066 15.1398 25.7345 14.7339 25.7345 14.3906L25.7448 14.3593Z" fill="#F27E04"/>
<path d="M19.3652 15.8056C19.2932 15.8784 19.4373 16.0137 19.499 16.0761C20.0798 16.4355 20.728 16.6694 21.4026 16.7628C21.4291 16.7901 21.4614 16.8109 21.4971 16.8235C21.5328 16.8361 21.5709 16.8403 21.6084 16.8357C21.6804 16.7629 21.7422 16.7628 21.8142 16.7004C22.4213 16.1489 22.4933 15.1917 23.1004 14.7026C23.3062 14.6298 23.512 14.5673 23.7795 14.4945C24.0813 14.3988 24.3768 14.2841 24.6645 14.1511C24.768 14.0668 24.8822 13.9968 25.004 13.943C25.0174 13.9168 25.0244 13.8878 25.0246 13.8583C25.0248 13.8289 25.0181 13.7998 25.0051 13.7734C24.992 13.747 24.973 13.7242 24.9496 13.7066C24.9262 13.6891 24.899 13.6774 24.8702 13.6725C24.8702 13.7453 24.7982 13.7453 24.7365 13.7453C24.3634 13.7432 23.9939 13.6727 23.6457 13.5372C23.5621 13.4682 23.4636 13.42 23.3581 13.3965C23.2527 13.373 23.1433 13.3748 23.0387 13.4019C22.9378 13.4544 22.8471 13.5249 22.7711 13.6101C22.4316 13.9534 22.2258 14.3696 21.8862 14.713C21.6442 15.0826 21.2791 15.3521 20.8572 15.4726C20.3473 15.5215 19.8458 15.6369 19.3652 15.816V15.8056Z" fill="#1B2747"/>
<path d="M24.1808 17.1062C24.047 17.0334 24.2528 16.3466 24.3866 16.0657C24.5414 15.9123 24.7275 15.7951 24.9319 15.7223C25.004 15.6495 25.1377 15.7952 25.0657 15.8576C24.776 16.2046 24.5464 16.5986 24.3866 17.023C24.3146 17.023 24.3146 17.0958 24.1808 17.0958V17.1062Z" fill="#1B2747"/>
<path d="M10.6601 24.2547C10.6787 24.234 10.6918 24.209 10.6983 24.1819C10.7047 24.1548 10.7044 24.1264 10.6972 24.0995C10.69 24.0726 10.6763 24.0479 10.6572 24.0278C10.6382 24.0076 10.6144 23.9926 10.5881 23.9841C10.4543 23.9841 10.1765 23.9113 10.1148 23.9113C9.83559 23.8789 9.55277 23.9046 9.28378 23.9869C9.01479 24.0692 8.76533 24.2064 8.55077 24.3899C8.47874 24.3899 8.55078 24.5252 8.6228 24.5252C8.64931 24.498 8.68164 24.4772 8.71732 24.4646C8.753 24.452 8.79105 24.4478 8.82858 24.4524C9.18446 24.3594 9.55441 24.3347 9.91929 24.3795C10.1868 24.3795 10.3926 24.4524 10.5984 24.3067C10.6083 24.3086 10.6184 24.308 10.628 24.305C10.6376 24.302 10.6463 24.2967 10.6534 24.2895C10.6605 24.2823 10.6658 24.2735 10.6687 24.2638C10.6717 24.2541 10.6723 24.2438 10.6704 24.2339L10.6601 24.2547Z" fill="#1B2747"/>
<path d="M12.5639 21.5181C12.6976 21.4452 12.6976 21.2475 12.4918 21.1747C12.0599 21.0047 11.59 20.9579 11.1336 21.0394C10.8594 21.3764 10.6721 21.7768 10.5882 22.2048C10.5068 22.6258 10.3932 23.0398 10.2487 23.4431C10.1766 23.5159 10.2487 23.5783 10.3824 23.6512C10.5235 23.641 10.6648 23.666 10.794 23.724C10.8661 23.724 10.9278 23.724 10.9278 23.6512C11.0616 23.3806 11.1953 23.0373 11.3394 22.7563C11.4048 22.55 11.5105 22.3589 11.6501 22.1945C11.7897 22.0301 11.9604 21.8956 12.1523 21.799C12.2262 21.7281 12.3193 21.6811 12.4198 21.6638H12.4918C12.4918 21.5909 12.5639 21.5909 12.5639 21.5285V21.5181Z" fill="#1B2747"/>
<path fill-rule="evenodd" clip-rule="evenodd" d="M9.71339 21.851C9.50759 22.0592 9.37383 22.3297 9.16804 22.5378C8.82858 22.702 8.51059 22.9083 8.22137 23.1517C8.11434 23.3075 8.06313 23.4956 8.07623 23.6848C8.08933 23.874 8.16595 24.053 8.2934 24.1922C8.2934 24.2651 8.36544 24.2651 8.42717 24.1922C8.53213 24.0432 8.67409 23.9247 8.83876 23.8489H8.91079V23.776C9.23518 23.6332 9.58602 23.5623 9.93976 23.5679C10.0118 23.5679 10.0118 23.5679 10.0735 23.4951C10.1278 23.3496 10.1968 23.2101 10.2793 23.0789V23.006V22.9332V22.7979L10.3513 22.7251V22.4545C10.4099 22.1713 10.4996 21.8956 10.6189 21.6325C10.6806 21.421 10.7979 21.2304 10.9584 21.0811C10.5183 21.2772 10.1064 21.5327 9.73396 21.8406L9.71339 21.851Z" fill="#754090"/>
<path d="M9.03437 21.2996C9.04423 21.2977 9.0544 21.2983 9.06398 21.3013C9.07356 21.3043 9.08226 21.3096 9.08935 21.3168C9.09644 21.324 9.10171 21.3328 9.10468 21.3425C9.10764 21.3522 9.10825 21.3624 9.1064 21.3724C9.12038 21.6038 9.09603 21.8359 9.03437 22.0592C8.99189 22.1875 8.92053 22.3041 8.82589 22.3998C8.73125 22.4955 8.61593 22.5677 8.48901 22.6106C8.62451 22.2045 8.73786 21.7911 8.82856 21.3724C8.82856 21.2996 8.82857 21.2996 8.9006 21.2996V21.2267C8.97262 21.2267 8.97263 21.2267 9.03437 21.2996Z" fill="#1B2747"/>
<path fill-rule="evenodd" clip-rule="evenodd" d="M4.2085 38C4.27012 37.9449 4.33945 37.8993 4.41427 37.8647C4.62867 37.8385 4.83541 37.7676 5.02139 37.6566C5.15516 37.6566 5.28892 37.5838 5.43298 37.5838C5.57703 37.5838 5.56672 37.511 5.70049 37.511C5.83425 37.511 5.83427 37.4381 5.90629 37.3757C6.02408 37.3854 6.14208 37.36 6.24584 37.3029C6.34066 37.3106 6.43521 37.2848 6.51338 37.23C6.63113 37.2391 6.74899 37.2138 6.85296 37.1572H6.9867C7.0132 37.1299 7.04554 37.1092 7.08122 37.0965C7.1169 37.0839 7.15498 37.0798 7.19251 37.0844C7.30418 37.0533 7.41755 37.029 7.53205 37.0115C7.60408 37.0115 7.60409 37.0115 7.66583 36.9387H7.87163C8.0054 36.9387 8.13916 36.8658 8.28322 36.8658C8.42727 36.8658 8.35525 36.8658 8.41699 36.793H8.62279C8.75656 36.793 8.89032 36.7202 9.03438 36.7202C9.0719 36.7248 9.10995 36.7206 9.14563 36.708C9.18131 36.6953 9.21365 36.6746 9.24015 36.6473H9.44596C9.57973 36.6473 9.71349 36.5745 9.85754 36.5745C10.0186 36.584 10.1799 36.5592 10.3309 36.5016H10.7425C10.8935 36.4441 11.0547 36.4193 11.2158 36.4288C11.4833 36.4288 11.8229 36.356 12.1007 36.356H12.574C12.7078 36.356 12.8416 36.2831 13.0474 36.2831H15.1053C15.1862 36.3317 15.2788 36.3569 15.3728 36.356H16.2577C16.4099 36.4091 16.5702 36.4337 16.7311 36.4288H16.9369C17.0317 36.4211 17.1262 36.4468 17.2044 36.5016H17.616C18.1677 36.5467 18.7149 36.6372 19.2521 36.7722C19.7974 36.845 20.3428 36.9803 20.7441 37.0427C20.7816 37.0381 20.8197 37.0423 20.8553 37.0549C20.891 37.0676 20.9234 37.0883 20.9499 37.1156H21.0836C21.2174 37.1156 21.2894 37.1884 21.4232 37.1884C21.5569 37.1884 21.4952 37.2612 21.5569 37.2612H21.6907C21.7716 37.3098 21.8642 37.335 21.9583 37.3341C22.3698 37.4693 22.6374 37.5422 22.9049 37.6046C23.0909 37.7156 23.2976 37.7865 23.512 37.8127C23.5868 37.8473 23.6562 37.8929 23.7178 37.948C23.6607 37.8983 23.5872 37.8723 23.512 37.8751H23.2445C23.1405 37.8185 23.0226 37.7932 22.9049 37.8023C22.8674 37.8069 22.8293 37.8027 22.7936 37.7901C22.758 37.7775 22.7256 37.7567 22.6991 37.7295H22.4316C22.2978 37.7295 22.092 37.6566 21.8862 37.6566C21.7921 37.6575 21.6996 37.6324 21.6187 37.5838H21.3512C21.2334 37.5935 21.1154 37.5681 21.0116 37.511H20.672C20.5383 37.511 20.4662 37.4381 20.3325 37.4381H19.9929C19.8592 37.4381 19.7254 37.3653 19.5813 37.3653H19.1698C19.0405 37.3073 18.8992 37.2823 18.7581 37.2925H18.3466C18.2745 37.2925 18.2128 37.2196 18.1408 37.2196H17.5337C17.3926 37.2297 17.2513 37.2047 17.1221 37.1468H16.2372C16.0761 37.1563 15.9148 37.1315 15.7638 37.0739H12.1624C12.0904 37.1468 12.0904 37.1468 12.0287 37.1468H10.8042C10.675 37.2047 10.5336 37.2297 10.3926 37.2196H9.91928C9.78551 37.2196 9.65175 37.2925 9.50769 37.2925H9.09611C8.96235 37.2925 8.82859 37.3653 8.68453 37.3653C8.20503 37.3729 7.72682 37.4181 7.25424 37.5006C6.78092 37.5734 6.36933 37.5734 5.96803 37.6358C5.83426 37.6358 5.62848 37.7087 5.49471 37.7087H5.22717C5.20067 37.7359 5.16833 37.7567 5.13265 37.7693C5.09697 37.7819 5.05892 37.7861 5.02139 37.7815C4.90328 37.7653 4.78324 37.791 4.68181 37.8543H4.41427C4.33904 37.8515 4.26555 37.8775 4.2085 37.9272V38Z" fill="#141B53"/>
<path fill-rule="evenodd" clip-rule="evenodd" d="M35.3967 28.5208V12.4343L41.6529 20.8209H42.8671L49.0512 12.4343V28.5208H51.0268V9.34393H49.1232L42.26 18.6254L35.3967 9.34393H33.3594V28.5208H35.3967Z" fill="#1B2747"/>
<path fill-rule="evenodd" clip-rule="evenodd" d="M65.031 11.7475L69.3116 21.4348H60.6682L65.031 11.7475ZM57.6945 28.5104L60.0096 23.2141H70.001L72.3162 28.5104H74.4873L65.988 9.19824H64.0844L55.5851 28.5104H57.6945Z" fill="#1B2747"/>
<path fill-rule="evenodd" clip-rule="evenodd" d="M81.0008 11.1961H87.4215C90.0043 11.1961 91.5374 12.4343 91.5374 14.6298C91.5374 16.8253 90.0454 18.0636 87.4215 18.0636H81.0316L81.0008 11.1961ZM81.0008 28.5104V19.9157H86.8453L92.7619 28.5104H95.1388L89.0267 19.718C90.2862 19.5846 91.4491 18.9738 92.2814 18.0086C93.1137 17.0434 93.5537 15.7953 93.513 14.5154C93.513 11.3938 91.1979 9.31274 87.5347 9.31274H79.0354V28.4896L81.0008 28.5104Z" fill="#1B2747"/>
<path fill-rule="evenodd" clip-rule="evenodd" d="M100.562 9.34393V28.5208H102.609V18.7607L112.662 28.5208H115.512L104.708 18.1364L114.02 9.34393H111.376L102.609 17.6577V9.34393H100.562Z" fill="#1B2747"/>
<path d="M121.769 9.34393H119.731V28.5208H121.769V9.34393Z" fill="#1B2747"/>
<path fill-rule="evenodd" clip-rule="evenodd" d="M134.003 28.8641C135.765 28.9212 137.501 28.4152 138.963 27.4177C139.613 26.9685 140.142 26.3619 140.502 25.6531C140.861 24.9444 141.039 24.156 141.021 23.3597C141.042 22.75 140.939 22.1423 140.718 21.5747C140.497 21.0072 140.162 20.4919 139.734 20.0612C139.305 19.6084 138.8 19.2351 138.242 18.9583C137.715 18.6955 137.172 18.4661 136.617 18.2715C135.999 18.0164 135.363 17.8111 134.713 17.6576L133.622 17.3142L132.398 16.9709L131.513 16.6275C131.19 16.5602 130.887 16.4177 130.628 16.2113C130.252 15.9848 129.942 15.6631 129.727 15.278C129.513 14.893 129.401 14.4578 129.403 14.0158C129.403 12.2989 130.895 10.8942 133.952 10.8942C136.034 10.8789 138.072 11.503 139.796 12.6839V10.6028C138.009 9.52606 135.959 8.9781 133.88 9.02125C132.166 8.9319 130.47 9.41447 129.054 10.3947C128.514 10.8136 128.079 11.3548 127.784 11.9747C127.489 12.5946 127.343 13.2759 127.356 13.9637C127.354 15.1109 127.764 16.2199 128.508 17.0853C128.941 17.4672 129.422 17.7891 129.939 18.0426C130.546 18.3131 131.163 18.5212 131.636 18.7294C132.11 18.9375 132.789 19.0727 133.612 19.3433C134.098 19.4479 134.576 19.587 135.042 19.7595L136.267 20.1757C136.668 20.3196 137.054 20.5044 137.419 20.7272C137.904 20.9605 138.31 21.3321 138.588 21.7963C138.866 22.2604 139.003 22.7967 138.983 23.3389C138.983 25.5344 136.812 26.9807 133.838 26.9807C132.514 26.9674 131.203 26.71 129.969 26.2211C128.87 25.8521 127.853 25.2688 126.975 24.5043V26.8454C129.08 28.214 131.543 28.9101 134.044 28.8433L134.003 28.8641Z" fill="#1B2747"/>
</g>
<defs>
<clipPath id="clip0_1_1216">
<rect width="141" height="38" fill="white"/>
</clipPath>
</defs>
</svg>
