<svg width="111" height="26" viewBox="0 0 111 26" fill="none" xmlns="http://www.w3.org/2000/svg">
<g clip-path="url(#clip0_1_1300)">
<path fill-rule="evenodd" clip-rule="evenodd" d="M101.84 1.18999H109.44L101.05 12.19L110.36 24.47H102.83L97.55 17.07L97.48 16.94L97.35 17.07L92.07 24.47H84.48L93.86 12.19L85.47 1.18999H93L97.49 7.26998L101.84 1.18999ZM45.24 25.36H45.37C47.3494 25.3542 49.3 24.8855 51.0658 23.9912C52.8317 23.097 54.3639 21.8021 55.54 20.21L51.12 16.84C50.23 18.0611 48.9779 18.9707 47.5415 19.4398C46.1051 19.9088 44.5574 19.9134 43.1183 19.4529C41.6791 18.9924 40.4217 18.0901 39.5244 16.8743C38.6272 15.6585 38.1358 14.1909 38.12 12.68C38.1411 10.7889 38.9106 8.98318 40.26 7.65813C41.6094 6.33308 43.4288 5.59663 45.32 5.60997C47.2482 5.60456 49.0999 6.36326 50.47 7.71999L54.89 4.34999C53.6878 2.99261 52.2137 1.90304 50.5633 1.15193C48.913 0.400831 47.1232 0.00494793 45.31 -0.0100225C43.6448 -0.0146188 41.9951 0.308807 40.4549 0.94179C38.9147 1.57477 37.5143 2.50493 36.3336 3.67913C35.1529 4.85332 34.2151 6.24859 33.5736 7.78523C32.9321 9.32188 32.5996 10.9698 32.595 12.635C32.5904 14.3002 32.9138 15.9499 33.5468 17.4901C34.1798 19.0302 35.1099 20.4306 36.2841 21.6113C37.4583 22.792 38.8536 23.7299 40.3902 24.3714C41.9269 25.0129 43.5748 25.3454 45.24 25.35V25.36ZM74.56 1.18999H82.09L73.7 12.19L83.08 24.47H75.49L70.21 17.07L70.08 16.94L70.01 17.07L64.73 24.47H57.19L66.5 12.19L58.11 1.18999H65.7L70.06 7.26998L74.56 1.18999ZM0 1.18999H5.09L14.19 13.41L23.19 1.18999H28.34V24.5H22.99V11.42L14.21 23.42L5.36 11.42V24.5H0.0100098L0 1.18999ZM56.4 6.46999V6.54C57.4098 8.63844 57.8871 10.9533 57.79 13.28H40.19C39.6 13.15 39.6 12.55 40.06 12.28L56.4 6.46999Z" fill="black"/>
</g>
<defs>
<clipPath id="clip0_1_1300">
<rect width="110.36" height="25.36" fill="white"/>
</clipPath>
</defs>
</svg>
