<svg width="142" height="44" viewBox="0 0 142 44" fill="none" xmlns="http://www.w3.org/2000/svg">
<path d="M69.1682 37.9617V30.5277H69.2949L71.5247 35.0366L73.7545 30.5277H73.8642V37.9385H73.7545V30.759L71.5754 35.2679H71.4656L69.2865 30.759V37.9385L69.1682 37.9617ZM74.6328 35.9731V30.5277H74.7426V35.95C74.727 36.1874 74.7653 36.4257 74.8525 36.6321C74.9949 37.0292 75.2296 37.3504 75.5197 37.5455C75.6722 37.6097 75.8218 37.687 75.9673 37.7767C76.1291 37.8406 76.2974 37.868 76.4656 37.8576C76.6917 37.8445 76.9157 37.7941 77.1329 37.7073C77.3427 37.6646 77.5473 37.583 77.741 37.4645C77.8989 37.2976 78.031 37.0893 78.1295 36.8518C78.2373 36.5946 78.2954 36.3042 78.2984 36.0078V30.5277H78.4082V35.95C78.4049 36.2683 78.3471 36.5812 78.2393 36.8633C78.1354 37.1213 77.9801 37.3338 77.7917 37.4761C77.6159 37.6789 77.4025 37.811 77.1751 37.8576C76.9648 37.9806 76.7359 38.0321 76.5078 38.0079C76.3396 38.0183 76.1713 37.9909 76.0096 37.927L75.5112 37.6957C75.3521 37.5605 75.2023 37.4057 75.0636 37.2333C74.9253 37.075 74.8276 36.8603 74.7849 36.6206C74.6978 36.4141 74.6594 36.1759 74.6751 35.9384L74.6328 35.9731ZM79.1515 37.9617V30.5277H79.2613V37.7767H82.1583V37.927L79.1515 37.9617ZM81.0518 30.7127V30.5277H84.9032V30.6781H83.062V38.0079H82.8931V30.6781L81.0518 30.7127ZM85.1228 37.9617V37.8114H86.2377V30.7127H85.1228V30.5277H87.5216V30.6781H86.3475V37.7767H87.5216V37.927L85.1228 37.9617ZM87.9692 37.9617V30.5277H90.1483C90.4095 30.4978 90.6692 30.6053 90.8746 30.8283C91.0785 31.0122 91.2351 31.2791 91.3223 31.5914C91.3967 32.0443 91.3967 32.5142 91.3223 32.9672C91.1771 33.3821 90.9447 33.7283 90.655 33.9615C90.7793 33.9601 90.9025 33.9932 91.0172 34.0588C91.1318 34.1244 91.2356 34.221 91.3223 34.343C91.4702 34.5788 91.6003 34.8345 91.7108 35.106C91.7554 35.3556 91.7753 35.6122 91.7699 35.8691V36.1003C91.7666 36.4186 91.7087 36.7315 91.601 37.0136C91.4637 37.2773 91.2953 37.5079 91.1027 37.6957C90.8804 37.8617 90.6293 37.9416 90.3763 37.927L87.9692 37.9617ZM88.079 37.8114H90.3679C90.5585 37.8047 90.747 37.7539 90.9253 37.6611C91.0905 37.5743 91.2281 37.4106 91.3138 37.1986C91.4247 37.0403 91.5185 36.8613 91.5926 36.6668C91.667 36.2139 91.667 35.7439 91.5926 35.291C91.5335 35.0613 91.4384 34.8521 91.3138 34.6783C91.1966 34.5057 91.0664 34.3507 90.9253 34.2158C90.747 34.123 90.5585 34.0722 90.3679 34.0655H88.079V37.8114ZM88.079 33.9152H90.1398C90.374 33.9297 90.6061 33.8493 90.807 33.684C90.9533 33.4755 91.0835 33.2469 91.1956 33.0019C91.27 32.5489 91.27 32.079 91.1956 31.6261C91.0836 31.381 90.9534 31.1524 90.807 30.944C90.6061 30.7787 90.374 30.6982 90.1398 30.7127H88.079V33.9152ZM92.302 37.9617V30.5277H94.1432C94.3891 30.5343 94.6333 30.5848 94.8696 30.6781C95.0487 30.8314 95.2156 31.0096 95.3679 31.2099C95.5038 31.3989 95.6001 31.6345 95.6467 31.892C95.7098 32.1378 95.7468 32.3948 95.7565 32.655C95.7473 32.9418 95.7103 33.2256 95.6467 33.499C95.5752 33.7416 95.4815 33.9708 95.3679 34.1811C95.2154 34.361 95.0482 34.5162 94.8696 34.6436C94.6449 34.8006 94.3955 34.88 94.1432 34.8748H93.248L95.7818 37.927H95.6128L93.079 34.8748V34.7245H94.1348C94.3673 34.7199 94.5959 34.6407 94.8021 34.4933C94.9854 34.4134 95.1433 34.2503 95.2497 34.0308C95.3742 33.8569 95.4694 33.6478 95.5284 33.4181C95.5962 33.174 95.6333 32.916 95.6382 32.655C95.628 32.4212 95.5909 32.191 95.5284 31.9729C95.469 31.7228 95.3743 31.491 95.2497 31.2908C95.111 31.1184 94.9612 30.9637 94.8021 30.8283C94.5849 30.7415 94.3608 30.691 94.1348 30.6781H92.4456V37.927L92.302 37.9617ZM95.9845 37.9617L98.1636 30.4006H98.2734L100.452 37.9617H100.343L99.6163 35.4413H96.8798L96.1534 37.9617H95.9845ZM96.9304 35.291H99.5487L98.2058 30.6665L96.9304 35.291ZM100.833 37.9617V30.5277H100.942L104.515 37.6264V30.5277H104.625V37.9385H104.515L100.942 30.8399V37.9385L100.833 37.9617ZM105.351 37.9617V30.5277H107.192C107.595 30.5159 107.994 30.6183 108.366 30.8283C108.691 31.0185 108.98 31.3071 109.211 31.6723C109.393 32.0565 109.544 32.4676 109.659 32.8978C109.773 33.3114 109.83 33.7505 109.828 34.1927C109.836 34.6618 109.778 35.1287 109.659 35.5685C109.544 35.9987 109.393 36.4098 109.211 36.794C108.965 37.1358 108.679 37.4208 108.366 37.6379C107.994 37.848 107.595 37.9504 107.192 37.9385L105.351 37.9617ZM105.461 37.8114H107.15C107.534 37.828 107.915 37.7252 108.265 37.5108C108.569 37.3171 108.835 37.028 109.042 36.6668C109.243 36.3584 109.396 35.9962 109.49 35.6032C109.6 35.1601 109.657 34.6955 109.659 34.2274C109.652 33.7863 109.595 33.3494 109.49 32.9325C109.396 32.5394 109.243 32.1773 109.042 31.8689C108.835 31.5077 108.569 31.2185 108.265 31.0249C107.915 30.8104 107.534 30.7077 107.15 30.7243H105.461V37.8114ZM113.062 35.7535C112.906 35.2741 112.831 34.7523 112.843 34.2274C112.836 33.7291 112.911 33.2351 113.062 32.7822C113.363 31.8915 113.875 31.1662 114.515 30.7243C114.854 30.5521 115.21 30.4507 115.571 30.4237C115.933 30.443 116.289 30.5446 116.627 30.7243C117.296 31.1331 117.831 31.866 118.13 32.7822C118.278 33.2534 118.354 33.7608 118.354 34.2736C118.354 34.7864 118.278 35.2938 118.13 35.765C117.977 36.2189 117.769 36.6334 117.514 36.9905C117.238 37.315 116.938 37.5979 116.618 37.8345C116.278 37.9908 115.921 38.0689 115.562 38.0657C115.204 38.063 114.848 37.985 114.507 37.8345C114.194 37.6174 113.909 37.3324 113.662 36.9905C113.389 36.6539 113.178 36.2341 113.046 35.765L113.062 35.7535ZM113.214 32.84C113.062 33.2682 112.987 33.7398 112.995 34.2158C112.982 34.7147 113.057 35.2105 113.214 35.661C113.332 36.1003 113.523 36.4961 113.772 36.8171C114.003 37.1823 114.292 37.4709 114.616 37.6611C114.94 37.8121 115.28 37.8902 115.622 37.8923C115.964 37.9032 116.305 37.8247 116.627 37.6611C116.958 37.4521 117.261 37.1666 117.522 36.8171C117.752 36.4757 117.941 36.0852 118.079 35.661C118.194 35.1954 118.251 34.707 118.248 34.2158C118.247 33.7477 118.19 33.2831 118.079 32.84C117.941 32.4157 117.752 32.0252 117.522 31.6839C117.261 31.3344 116.958 31.0489 116.627 30.8399C116.305 30.6763 115.964 30.5978 115.622 30.6087C115.28 30.6108 114.94 30.6889 114.616 30.8399C114.292 31.0301 114.003 31.3186 113.772 31.6839C113.523 32.0049 113.332 32.4007 113.214 32.84ZM118.958 35.9731V30.5277H119.127V35.95C119.111 36.1874 119.149 36.4257 119.237 36.6321C119.276 36.8519 119.376 37.0424 119.515 37.1639C119.62 37.332 119.754 37.4629 119.904 37.5455C120.049 37.6352 120.199 37.7124 120.351 37.7767C120.513 37.8406 120.681 37.868 120.85 37.8576C121.274 37.799 121.688 37.6427 122.074 37.3952C122.232 37.2282 122.364 37.0199 122.463 36.7824C122.571 36.5253 122.629 36.2348 122.632 35.9384V30.5277H122.742V35.95C122.738 36.2683 122.68 36.5812 122.573 36.8633C122.453 37.1044 122.301 37.3123 122.125 37.4761C121.949 37.6789 121.736 37.811 121.509 37.8576C121.298 37.9806 121.069 38.0321 120.841 38.0079C120.673 38.0183 120.505 37.9909 120.343 37.927C120.123 37.846 119.954 37.7767 119.786 37.6957C119.617 37.6148 119.507 37.3952 119.397 37.2333C119.259 37.075 119.161 36.8603 119.118 36.6206C119.031 36.4141 118.993 36.1759 119.008 35.9384L118.958 35.9731ZM123.181 30.7012V30.5277H127.032V30.6781H125.191V38.0079H125.039V30.6781L123.181 30.7012ZM127.48 37.9501V30.5277H127.573V37.7767H130.47V37.927L127.48 37.9501ZM130.993 37.9501V30.5277H133.95V30.6781H131.103V34.1464H133.89V34.3777H131.103V37.8461H133.95V37.9964L130.993 37.9501ZM134.228 30.7012V30.5277H138.08V30.6781H136.238V38.0079H136.129V30.6781L134.228 30.7012Z" fill="#141515"/>
<path d="M8.47486 30.7821L8.58466 27.4987L7.14038 17.5676L23.7622 33.6031L25.0967 33.9846" stroke="#141515" stroke-width="0.23" stroke-miterlimit="10"/>
<path d="M2.39374 7.03491L3.89714 24.7468" stroke="#141515" stroke-width="0.23" stroke-miterlimit="10"/>
<path fill-rule="evenodd" clip-rule="evenodd" d="M7.14023 16.8042L7.35983 16.8851L7.52875 17.0354L7.63855 17.336L7.69767 17.5672L7.63855 17.8794L7.52875 18.18L7.35983 18.2609L7.14023 18.4112L6.91218 18.2609L6.74326 18.18L6.63346 17.8794L6.57434 17.5672L6.63346 17.336L6.74326 17.0354L6.91218 16.8851L7.14023 16.8042Z" fill="#DD2A1B"/>
<path d="M7.14023 16.8042L7.35983 16.8851L7.52875 17.0354L7.63855 17.336L7.69767 17.5672L7.63855 17.8794L7.52875 18.18L7.35983 18.2609L7.14023 18.4112L6.91218 18.2609L6.74326 18.18L6.63346 17.8794L6.57434 17.5672L6.63346 17.336L6.74326 17.0354L6.91218 16.8851L7.14023 16.8042Z" stroke="#141515" stroke-width="0.23" stroke-miterlimit="10"/>
<path d="M43.45 19.5559C42.6316 16.6823 42.6316 13.4927 43.45 10.6191C43.892 9.27097 44.4942 8.03253 45.2322 6.95413C46.003 5.89444 46.9108 5.03983 47.9095 4.43376C48.9206 3.82995 50.0117 3.51831 51.1148 3.51831C52.2179 3.51831 53.3091 3.82995 54.3201 4.43376C55.3266 5.02076 56.2369 5.87774 56.9975 6.95413C57.7716 7.9925 58.3786 9.24082 58.7796 10.6191C59.2218 12.031 59.4498 13.5513 59.4498 15.0875C59.4498 16.6237 59.2218 18.144 58.7796 19.5559C58.3786 20.9342 57.7716 22.1825 56.9975 23.2209C56.2369 24.2973 55.3266 25.1542 54.3201 25.7412C53.3091 26.345 52.2179 26.6567 51.1148 26.6567C50.0117 26.6567 48.9206 26.345 47.9095 25.7412C46.9108 25.1352 46.003 24.2806 45.2322 23.2209C44.4942 22.1425 43.892 20.904 43.45 19.5559ZM45.6798 11.9255C45.3448 12.9304 45.1747 14.0235 45.1815 15.128C45.1799 16.2094 45.3499 17.2784 45.6798 18.2611C45.9535 19.2735 46.3926 20.187 46.9636 20.9317C47.5005 21.7129 48.1468 22.3381 48.864 22.77C49.5917 23.1709 50.3684 23.3788 51.1529 23.3827C51.9362 23.3643 52.711 23.1568 53.4417 22.77C54.1508 22.3188 54.7946 21.6961 55.3421 20.9317C55.901 20.1734 56.3383 19.2638 56.6259 18.2611C56.9182 17.2406 57.07 16.1548 57.0736 15.0586C57.0904 13.9891 56.9495 12.9259 56.6593 11.9326C56.369 10.9394 55.9354 10.0365 55.3843 9.27795C54.8493 8.51396 54.2015 7.91488 53.484 7.52064C52.7642 7.07691 51.9845 6.84453 51.1951 6.83851C50.4044 6.82797 49.6221 7.06112 48.9062 7.52064C48.1814 7.89583 47.5306 8.49757 47.0058 9.27795C46.4224 10.0162 45.9591 10.9143 45.646 11.9139L45.6798 11.9255ZM60.9672 26.354V3.82101H66.8794C67.5229 3.82367 68.1628 3.95215 68.7798 4.20254C69.3232 4.43165 69.8323 4.79186 70.2832 5.26618C70.6946 5.74923 71.0505 6.31438 71.3389 6.94258C71.6166 7.53936 71.8407 8.17986 72.0062 8.85018C72.1378 9.54959 72.2114 10.2671 72.2257 10.989C72.2315 12.5953 71.8384 14.1566 71.1109 15.417C70.3313 16.7405 69.215 17.6119 67.9859 17.8564L73.1211 26.3309H70.1396L64.1682 16.4806V14.8736H66.9047C67.3075 14.9091 67.7111 14.824 68.0874 14.6244C68.4637 14.4247 68.8037 14.1153 69.0838 13.7175C69.5872 12.9668 69.8664 11.9849 69.8664 10.9659C69.8664 9.94695 69.5872 8.96505 69.0838 8.21431C68.8037 7.81655 68.4637 7.50707 68.0874 7.30741C67.7111 7.10776 67.3075 7.02271 66.9047 7.05818H63.2814V26.2962L60.9672 26.354ZM73.5771 26.354V23.0706H76.5924V7.11599H73.5771V3.82101H81.9641V7.10444H78.9488V23.059H81.9641V26.3424L73.5771 26.354ZM82.6144 19.7062C82.1809 18.2383 81.971 16.6646 81.9978 15.0817C81.9606 13.4977 82.1708 11.9211 82.6144 10.4572C82.9746 9.08092 83.5512 7.82977 84.3037 6.79228C85.037 5.81448 85.896 5.03057 86.8375 4.48002C87.832 3.93628 88.8916 3.65011 89.9625 3.63605C90.6196 3.61866 91.2757 3.71971 91.9136 3.93663C92.5694 4.11277 93.2075 4.39612 93.8139 4.7806C94.4262 5.21225 94.9942 5.75259 95.5032 6.38762C96.054 7.05274 96.5244 7.83318 96.8967 8.69988C97.3021 9.67362 97.5875 10.7322 97.7413 11.833H95.2075C95.0907 10.9868 94.8239 10.1928 94.4305 9.52074C94.0713 8.91283 93.6367 8.39624 93.1467 7.99464C92.1784 7.25158 91.0805 6.88385 89.9709 6.93101C89.2201 6.91168 88.4746 7.10738 87.7823 7.50558C87.09 7.90377 86.466 8.49566 85.9506 9.24326C84.8639 10.8351 84.281 12.9503 84.329 15.128C84.2928 17.3236 84.8732 19.4547 85.9506 21.082C86.4679 21.8263 87.0922 22.4159 87.7841 22.8138C88.476 23.2117 89.2205 23.4094 89.9709 23.3943C91.3935 23.4319 92.7723 22.72 93.8223 21.4058C94.405 20.6745 94.8461 19.7569 95.1062 18.7351H89.0841V15.5326H97.8933C97.8454 16.8494 97.6954 18.1554 97.4457 19.4288V19.3478C97.081 20.7749 96.4696 22.06 95.6636 23.0937C94.9076 24.1775 93.9961 25.0356 92.9862 25.6141C92.0283 26.1502 91.0057 26.4364 89.9709 26.458C88.8832 26.4504 87.806 26.1642 86.7952 25.6141C85.8509 25.0708 84.9909 24.286 84.2614 23.3018C83.5222 22.2811 82.9469 21.0604 82.5722 19.7178L82.6144 19.7062ZM97.5639 26.354L104.143 3.52043H105.833L112.37 26.354H109.836L107.885 19.7062H102.032C101.086 22.8394 100.41 25.0476 100.081 26.354H97.5639ZM102.978 16.6541H106.998L105.047 8.71146L102.978 16.6541ZM113.215 26.354V3.82101H115.115L120.529 14.7349L125.884 3.82101H127.784V26.3424H125.444V10.4688L121.145 19.2438H119.862L115.563 10.4688V26.354H113.215ZM129.836 26.354V23.0706H132.852V7.11599H129.853V3.82101H138.299V7.10444H135.284V23.059H138.299V26.3424L129.836 26.354ZM138.874 24.5157C138.863 24.2544 138.892 23.9929 138.957 23.7467C139.022 23.5006 139.122 23.2749 139.252 23.0829C139.382 22.891 139.539 22.7367 139.713 22.6294C139.888 22.522 140.076 22.4637 140.267 22.4578C140.465 22.4545 140.66 22.5072 140.842 22.6127C141.024 22.7182 141.188 22.8741 141.323 23.0706C141.575 23.446 141.714 23.9369 141.714 24.4464C141.714 24.9559 141.575 25.4468 141.323 25.8222C141.189 26.021 141.025 26.1784 140.843 26.2841C140.661 26.3897 140.465 26.4411 140.267 26.4349C140.076 26.449 139.886 26.4008 139.711 26.2943C139.536 26.1878 139.382 26.0259 139.262 25.8222C139.137 25.6531 139.038 25.4513 138.972 25.2288C138.905 25.0064 138.872 24.7678 138.874 24.5273V24.5157Z" fill="#141515"/>
<path d="M27.2757 1L18.0104 8.17956L8.81261 1L7.14029 17.5673L1 14.8967L12.6049 1.53182" stroke="#141515" stroke-width="0.23" stroke-miterlimit="10"/>
<path d="M33.6864 7.03516L32.183 24.7471L7.14038 17.5675L18.0105 43.1526L35.08 14.8968L23.4835 1.53198" stroke="#141515" stroke-width="0.23" stroke-miterlimit="10"/>
<path d="M1 14.8965L18.0695 43.1523" stroke="#141515" stroke-width="0.23" stroke-miterlimit="10"/>
<path d="M18.0104 43.1525L32.1829 24.7469L35.0799 14.8967L33.6863 7.035L27.2757 1L23.4834 1.53182L18.0104 8.17956L12.6049 1.53182L8.81261 1L2.3936 7.035L1 14.8967L3.90545 24.7469L18.0104 43.1525Z" stroke="#D3202B" stroke-width="0.23" stroke-miterlimit="10"/>
<path d="M8.02719 16.1917C7.95326 16.0033 7.91455 15.7928 7.91455 15.5789C7.91455 15.3651 7.95326 15.1546 8.02719 14.9662C8.06676 14.7666 8.14222 14.5837 8.24674 14.4344C8.36238 14.2826 8.49321 14.1542 8.63528 14.0528C8.77688 13.9671 8.92844 13.9162 9.08295 13.9025C9.25379 13.9165 9.42192 13.9672 9.58124 14.0528C9.7233 14.1542 9.85414 14.2826 9.96977 14.4344C10.0548 14.602 10.1283 14.78 10.1894 14.9662C10.2633 15.1546 10.302 15.3651 10.302 15.5789C10.302 15.7928 10.2633 16.0033 10.1894 16.1917C10.1283 16.3779 10.0548 16.5559 9.96977 16.7235C9.85414 16.8752 9.7233 17.0037 9.58124 17.105C9.42192 17.1906 9.25379 17.2413 9.08295 17.2553C8.92844 17.2416 8.77688 17.1907 8.63528 17.105C8.49321 17.0037 8.36238 16.8752 8.24674 16.7235C8.14192 16.5744 8.06642 16.3915 8.02719 16.1917ZM8.08632 14.9662C8.01239 15.1546 7.97368 15.3651 7.97368 15.5789C7.97368 15.7928 8.01239 16.0033 8.08632 16.1917C8.12555 16.3915 8.20105 16.5744 8.30587 16.7235C8.40488 16.8498 8.51923 16.9515 8.64374 17.0241C8.78723 17.102 8.93782 17.1525 9.09135 17.1744C9.24687 17.1704 9.39981 17.1191 9.53902 17.0241C9.68815 16.9735 9.82437 16.8682 9.93302 16.7194C10.0417 16.5707 10.1186 16.3843 10.1556 16.1801C10.2295 15.9917 10.2682 15.7812 10.2682 15.5674C10.2682 15.3535 10.2295 15.143 10.1556 14.9546C10.1036 14.7624 10.0294 14.5829 9.93596 14.4228C9.82706 14.2793 9.69344 14.1759 9.54747 14.1222C9.40826 14.0272 9.25532 13.9759 9.0998 13.9719C8.94627 13.9938 8.79569 14.0443 8.65219 14.1222C8.52768 14.1948 8.41334 14.2965 8.31433 14.4228C8.22085 14.5829 8.14671 14.7624 8.09472 14.9546L8.08632 14.9662ZM10.5441 17.186V13.9835H11.3887C11.4854 13.9734 11.5821 14.0015 11.6674 14.0644C11.7503 14.1226 11.8247 14.201 11.887 14.2956C11.9204 14.3315 11.9476 14.3771 11.9666 14.4291C11.9856 14.481 11.9959 14.5381 11.9968 14.5962C12.0413 14.6841 12.0622 14.7903 12.0559 14.8968C12.0633 15.0291 12.0428 15.1615 11.9968 15.2783C11.9828 15.3912 11.9446 15.4958 11.887 15.5789C11.8247 15.6736 11.7503 15.7519 11.6674 15.8102C11.5576 15.8102 11.4985 15.8911 11.3296 15.8911H11.0171L12.0728 17.186H12.0137L10.8988 15.8911V15.8102H11.3465C11.4563 15.8102 11.5661 15.7292 11.6843 15.7292L11.8532 15.498C11.8866 15.4621 11.9138 15.4166 11.9328 15.3646C11.9518 15.3126 11.9621 15.2555 11.963 15.1974C12.0222 15.1165 12.0222 15.0471 12.0222 14.8968C12.0284 14.7903 12.0075 14.6841 11.963 14.5962C11.9456 14.501 11.9107 14.4135 11.8617 14.3419C11.8026 14.2609 11.7519 14.1916 11.6928 14.1916C11.5867 14.1272 11.4707 14.0994 11.3549 14.1107H10.6285V17.2438L10.5441 17.186ZM12.2333 17.186V17.105H12.7063V14.0528H12.208V13.9719H13.213V14.0528H12.7063V17.105H13.2046V17.186H12.2333ZM13.2891 15.5789C13.2773 15.3713 13.2975 15.1625 13.3482 14.9662C13.4277 14.7765 13.5211 14.5983 13.6269 14.4344C13.7251 14.2849 13.8389 14.1563 13.9647 14.0528C14.1097 13.9925 14.261 13.9652 14.4124 13.9719C14.5641 13.9558 14.7166 13.9834 14.86 14.0528C15.0102 14.135 15.1436 14.2659 15.2486 14.4344C15.3531 14.5837 15.4286 14.7666 15.4682 14.9662H15.409C15.3451 14.6812 15.2068 14.4384 15.0205 14.2841C14.84 14.1059 14.6261 14.0016 14.404 13.9835C14.2685 13.998 14.1364 14.0491 14.0154 14.1338C13.8803 14.2181 13.7638 14.3497 13.6776 14.5153C13.5685 14.6498 13.4746 14.8056 13.3989 14.9778C13.3518 15.1753 13.3317 15.383 13.3397 15.5905C13.328 15.7982 13.3481 16.0069 13.3989 16.2032C13.4589 16.4089 13.5546 16.5914 13.6776 16.7351C13.7163 16.8137 13.7661 16.8808 13.8242 16.9324C13.8822 16.9841 13.9472 17.0192 14.0154 17.0357C14.1364 17.1203 14.2685 17.1714 14.404 17.186C14.5748 17.172 14.7429 17.1213 14.9022 17.0357C15.012 16.8854 15.181 16.7351 15.2908 16.5732C15.4034 16.407 15.4641 16.1871 15.4597 15.9605H14.4546V15.8795H15.5695C15.5104 15.9605 15.5104 16.1108 15.4597 16.1801C15.4514 16.2845 15.4276 16.3855 15.3898 16.4769C15.3521 16.5683 15.3011 16.6483 15.2401 16.7119C15.1351 16.8804 15.0018 17.0113 14.8516 17.0935C14.71 17.1794 14.5585 17.2303 14.404 17.2438C14.2504 17.2219 14.0998 17.1713 13.9563 17.0935C13.8305 16.99 13.7166 16.8614 13.6185 16.7119C13.5126 16.5481 13.4192 16.3699 13.3397 16.1801C13.289 15.9838 13.2689 15.775 13.2806 15.5674L13.2891 15.5789ZM15.578 17.186V17.105H16.0847V14.0528H15.5864V13.9719H16.6421V14.0528H16.0847V17.105H16.5831V17.186H15.578ZM16.8617 17.186V13.9835H16.9293L18.4327 17.1166V13.9835H18.4918V17.186H18.4327L16.9293 14.1338V17.186H16.8617ZM18.6439 17.186L19.5899 13.9025H19.6489L20.5949 17.186H20.5358L20.1979 16.1223H19.0239L18.6861 17.186H18.6439ZM19.0324 16.0298H20.2064L19.6489 14.0413L19.0324 16.0298ZM20.7216 17.186V13.9835H20.7807V17.1166H22.0645V17.1975L20.7216 17.186ZM22.0645 16.4229H22.1237C22.1225 16.5019 22.1377 16.5797 22.1676 16.6473C22.1975 16.7148 22.2408 16.7693 22.2926 16.8044C22.3591 16.9435 22.4569 17.0491 22.5713 17.105C22.6811 17.105 22.7909 17.186 22.9092 17.186C23.0008 17.1515 23.0938 17.1245 23.1878 17.105C23.2976 17.0241 23.3568 16.9547 23.4666 16.8738C23.5357 16.7884 23.593 16.6866 23.6355 16.5732V16.1108C23.6355 16.0298 23.5764 15.9605 23.5257 15.8795C23.475 15.7986 23.4666 15.7986 23.4159 15.7292C23.3652 15.6599 23.247 15.6483 23.1963 15.6483C23.1456 15.6483 23.0274 15.6483 22.9767 15.5674H22.7571C22.6473 15.5674 22.5882 15.5674 22.5375 15.4865C22.4868 15.4055 22.3686 15.4055 22.3179 15.4055C22.2672 15.4055 22.2081 15.2552 22.2081 15.1743C22.1636 15.0865 22.1427 14.9802 22.149 14.8737V14.7928C22.149 14.5615 22.149 14.4113 22.2588 14.3303C22.3013 14.2169 22.3586 14.1151 22.4277 14.0297C22.5217 14.0103 22.6148 13.9833 22.7065 13.9488C22.7656 13.8679 22.8162 13.8679 22.926 13.8679C22.9688 13.8747 23.0081 13.9036 23.0358 13.9488C23.1325 13.9387 23.2292 13.9668 23.3145 14.0297C23.3737 14.1106 23.4835 14.18 23.5342 14.2609C23.6036 14.3655 23.6426 14.5012 23.644 14.6425H23.5848C23.5848 14.4922 23.5257 14.4112 23.475 14.2609C23.3901 14.1672 23.2963 14.0895 23.1963 14.0297C23.0865 14.0297 23.0274 13.9488 22.9176 13.9488H22.8416C22.7221 13.9633 22.6066 14.0147 22.5037 14.0991C22.3939 14.0991 22.3348 14.2494 22.225 14.3303C22.1634 14.4711 22.1258 14.6292 22.1152 14.7928V14.8737C22.1743 15.024 22.1743 15.1049 22.225 15.1743C22.245 15.2345 22.2755 15.287 22.3138 15.3273C22.3521 15.3676 22.397 15.3945 22.4446 15.4055C22.5544 15.4055 22.6135 15.4865 22.7233 15.4865C22.9091 15.5366 23.095 15.5867 23.2808 15.6367C23.3906 15.6367 23.4497 15.7177 23.5595 15.787C23.5929 15.8229 23.6201 15.8685 23.6391 15.9205C23.658 15.9724 23.6683 16.0295 23.6693 16.0876V16.4692C23.6683 16.5273 23.658 16.5843 23.6391 16.6363C23.6201 16.6883 23.5929 16.7339 23.5595 16.7698L23.3906 17.001C23.2808 17.0819 23.2216 17.1513 23.1118 17.1513C23.0202 17.1857 22.9271 17.2128 22.8331 17.2322C22.774 17.2322 22.6642 17.1513 22.6135 17.1513C22.5628 17.1513 22.4446 17.0703 22.3348 17.001L22.1659 16.7698C22.1068 16.6195 22.0561 16.5385 22.0561 16.3882L22.0645 16.4229ZM28.5342 17.186V13.9835H28.5933L29.5984 15.972L30.5444 13.9835H30.6035V17.186H30.5444V14.0528L29.5984 16.0414L28.6525 14.0528V17.186H28.5342ZM30.9329 17.186V13.9835H32.2167V14.0644H30.992V15.5905H32.166V15.6714H30.992V17.1166H32.2167V17.1975L30.9329 17.186Z" fill="#141515"/>
<path d="M8.02719 16.1917C7.95326 16.0033 7.91455 15.7928 7.91455 15.5789C7.91455 15.3651 7.95326 15.1546 8.02719 14.9662C8.06676 14.7666 8.14222 14.5837 8.24674 14.4344C8.36238 14.2826 8.49321 14.1542 8.63528 14.0528C8.77688 13.9671 8.92844 13.9162 9.08295 13.9025C9.25379 13.9165 9.42192 13.9672 9.58124 14.0528C9.7233 14.1542 9.85414 14.2826 9.96977 14.4344C10.0548 14.602 10.1283 14.78 10.1894 14.9662C10.2633 15.1546 10.302 15.3651 10.302 15.5789C10.302 15.7928 10.2633 16.0033 10.1894 16.1917C10.1283 16.3779 10.0548 16.5559 9.96977 16.7235C9.85414 16.8752 9.7233 17.0037 9.58124 17.105C9.42192 17.1906 9.25379 17.2413 9.08295 17.2553C8.92844 17.2416 8.77688 17.1907 8.63528 17.105C8.49321 17.0037 8.36238 16.8752 8.24674 16.7235C8.14192 16.5744 8.06642 16.3915 8.02719 16.1917V16.1917ZM8.08632 14.9662C8.01239 15.1546 7.97368 15.3651 7.97368 15.5789C7.97368 15.7928 8.01239 16.0033 8.08632 16.1917C8.12555 16.3915 8.20105 16.5744 8.30587 16.7235C8.40488 16.8498 8.51923 16.9515 8.64374 17.0241C8.78723 17.102 8.93782 17.1525 9.09135 17.1744C9.24687 17.1704 9.39981 17.1191 9.53902 17.0241C9.68815 16.9735 9.82437 16.8682 9.93302 16.7194C10.0417 16.5707 10.1186 16.3843 10.1556 16.1801C10.2295 15.9917 10.2682 15.7812 10.2682 15.5674C10.2682 15.3535 10.2295 15.143 10.1556 14.9546C10.1036 14.7624 10.0294 14.5829 9.93596 14.4228C9.82706 14.2793 9.69344 14.1759 9.54747 14.1222C9.40826 14.0272 9.25532 13.9759 9.0998 13.9719C8.94627 13.9938 8.79569 14.0443 8.65219 14.1222C8.52768 14.1948 8.41334 14.2965 8.31433 14.4228C8.22085 14.5829 8.14671 14.7624 8.09472 14.9546L8.08632 14.9662ZM10.5441 17.186V13.9835H11.3887C11.4854 13.9734 11.5821 14.0015 11.6674 14.0644C11.7503 14.1226 11.8247 14.201 11.887 14.2956C11.9204 14.3315 11.9476 14.3771 11.9666 14.4291C11.9856 14.481 11.9959 14.5381 11.9968 14.5962C12.0413 14.6841 12.0622 14.7903 12.0559 14.8968C12.0633 15.0291 12.0428 15.1615 11.9968 15.2783C11.9828 15.3912 11.9446 15.4958 11.887 15.5789C11.8247 15.6736 11.7503 15.7519 11.6674 15.8102C11.5576 15.8102 11.4985 15.8911 11.3296 15.8911H11.0171L12.0728 17.186H12.0137L10.8988 15.8911V15.8102H11.3465C11.4563 15.8102 11.5661 15.7292 11.6843 15.7292L11.8532 15.498C11.8866 15.4621 11.9138 15.4166 11.9328 15.3646C11.9518 15.3126 11.9621 15.2555 11.963 15.1974C12.0222 15.1165 12.0222 15.0471 12.0222 14.8968C12.0284 14.7903 12.0075 14.6841 11.963 14.5962C11.9456 14.501 11.9107 14.4135 11.8617 14.3419C11.8026 14.2609 11.7519 14.1916 11.6928 14.1916C11.5867 14.1272 11.4707 14.0994 11.3549 14.1107H10.6285V17.2438L10.5441 17.186ZM12.2333 17.186V17.105H12.7063V14.0528H12.208V13.9719H13.213V14.0528H12.7063V17.105H13.2046V17.186H12.2333ZM13.2891 15.5789C13.2773 15.3713 13.2975 15.1625 13.3482 14.9662C13.4277 14.7765 13.5211 14.5983 13.6269 14.4344C13.7251 14.2849 13.8389 14.1563 13.9647 14.0528C14.1097 13.9925 14.261 13.9652 14.4124 13.9719C14.5641 13.9558 14.7166 13.9834 14.86 14.0528C15.0102 14.135 15.1436 14.2659 15.2486 14.4344C15.3531 14.5837 15.4286 14.7666 15.4682 14.9662H15.409C15.3451 14.6812 15.2068 14.4384 15.0205 14.2841C14.84 14.1059 14.6261 14.0016 14.404 13.9835C14.2685 13.998 14.1364 14.0491 14.0154 14.1338C13.8803 14.2181 13.7638 14.3497 13.6776 14.5153C13.5685 14.6498 13.4746 14.8056 13.3989 14.9778C13.3518 15.1753 13.3317 15.383 13.3397 15.5905C13.328 15.7982 13.3481 16.0069 13.3989 16.2032C13.4589 16.4089 13.5546 16.5914 13.6776 16.7351C13.7163 16.8137 13.7661 16.8808 13.8242 16.9324C13.8822 16.9841 13.9472 17.0192 14.0154 17.0357C14.1364 17.1203 14.2685 17.1714 14.404 17.186C14.5748 17.172 14.7429 17.1213 14.9022 17.0357C15.012 16.8854 15.181 16.7351 15.2908 16.5732C15.4034 16.407 15.4641 16.1871 15.4597 15.9605H14.4546V15.8795H15.5695C15.5104 15.9605 15.5104 16.1108 15.4597 16.1801C15.4514 16.2845 15.4276 16.3855 15.3898 16.4769C15.3521 16.5683 15.3011 16.6483 15.2401 16.7119C15.1351 16.8804 15.0018 17.0113 14.8516 17.0935C14.71 17.1794 14.5585 17.2303 14.404 17.2438C14.2504 17.2219 14.0998 17.1713 13.9563 17.0935C13.8305 16.99 13.7166 16.8614 13.6185 16.7119C13.5126 16.5481 13.4192 16.3699 13.3397 16.1801C13.289 15.9838 13.2689 15.775 13.2806 15.5674L13.2891 15.5789ZM15.578 17.186V17.105H16.0847V14.0528H15.5864V13.9719H16.6421V14.0528H16.0847V17.105H16.5831V17.186H15.578ZM16.8617 17.186V13.9835H16.9293L18.4327 17.1166V13.9835H18.4918V17.186H18.4327L16.9293 14.1338V17.186H16.8617ZM18.6439 17.186L19.5899 13.9025H19.6489L20.5949 17.186H20.5358L20.1979 16.1223H19.0239L18.6861 17.186H18.6439ZM19.0324 16.0298H20.2064L19.6489 14.0413L19.0324 16.0298ZM20.7216 17.186V13.9835H20.7807V17.1166H22.0645V17.1975L20.7216 17.186ZM22.0645 16.4229H22.1237C22.1225 16.5019 22.1377 16.5797 22.1676 16.6473C22.1975 16.7148 22.2408 16.7693 22.2926 16.8044C22.3591 16.9435 22.4569 17.0491 22.5713 17.105C22.6811 17.105 22.7909 17.186 22.9092 17.186C23.0008 17.1515 23.0938 17.1245 23.1878 17.105C23.2976 17.0241 23.3568 16.9547 23.4666 16.8738C23.5357 16.7884 23.593 16.6866 23.6355 16.5732V16.1108C23.6355 16.0298 23.5764 15.9605 23.5257 15.8795C23.475 15.7986 23.4666 15.7986 23.4159 15.7292C23.3652 15.6599 23.247 15.6483 23.1963 15.6483C23.1456 15.6483 23.0274 15.6483 22.9767 15.5674H22.7571C22.6473 15.5674 22.5882 15.5674 22.5375 15.4865C22.4868 15.4055 22.3686 15.4055 22.3179 15.4055C22.2672 15.4055 22.2081 15.2552 22.2081 15.1743C22.1636 15.0865 22.1427 14.9802 22.149 14.8737V14.7928C22.149 14.5615 22.149 14.4113 22.2588 14.3303C22.3013 14.2169 22.3586 14.1151 22.4277 14.0297C22.5217 14.0103 22.6148 13.9833 22.7065 13.9488C22.7656 13.8679 22.8162 13.8679 22.926 13.8679C22.9688 13.8747 23.0081 13.9036 23.0358 13.9488C23.1325 13.9387 23.2292 13.9668 23.3145 14.0297C23.3737 14.1106 23.4835 14.18 23.5342 14.2609C23.6036 14.3655 23.6426 14.5012 23.644 14.6425H23.5848C23.5848 14.4922 23.5257 14.4112 23.475 14.2609C23.3901 14.1672 23.2963 14.0895 23.1963 14.0297C23.0865 14.0297 23.0274 13.9488 22.9176 13.9488H22.8416C22.7221 13.9633 22.6066 14.0147 22.5037 14.0991C22.3939 14.0991 22.3348 14.2494 22.225 14.3303C22.1634 14.4711 22.1258 14.6292 22.1152 14.7928V14.8737C22.1743 15.024 22.1743 15.1049 22.225 15.1743C22.245 15.2345 22.2755 15.287 22.3138 15.3273C22.3521 15.3676 22.397 15.3945 22.4446 15.4055C22.5544 15.4055 22.6135 15.4865 22.7233 15.4865C22.9091 15.5366 23.095 15.5867 23.2808 15.6367C23.3906 15.6367 23.4497 15.7177 23.5595 15.787C23.5929 15.8229 23.6201 15.8685 23.6391 15.9205C23.658 15.9724 23.6683 16.0295 23.6693 16.0876V16.4692C23.6683 16.5273 23.658 16.5843 23.6391 16.6363C23.6201 16.6883 23.5929 16.7339 23.5595 16.7698L23.3906 17.001C23.2808 17.0819 23.2216 17.1513 23.1118 17.1513C23.0202 17.1857 22.9271 17.2128 22.8331 17.2322C22.774 17.2322 22.6642 17.1513 22.6135 17.1513C22.5628 17.1513 22.4446 17.0703 22.3348 17.001L22.1659 16.7698C22.1068 16.6195 22.0561 16.5385 22.0561 16.3882L22.0645 16.4229ZM28.5342 17.186V13.9835H28.5933L29.5984 15.972L30.5444 13.9835H30.6035V17.186H30.5444V14.0528L29.5984 16.0414L28.6525 14.0528V17.186H28.5342ZM30.9329 17.186V13.9835H32.2167V14.0644H30.992V15.5905H32.166V15.6714H30.992V17.1166H32.2167V17.1975L30.9329 17.186Z" stroke="#141515" stroke-width="0.23" stroke-miterlimit="10"/>
<path d="M26.9968 17.1861L26.659 16.7236C26.4592 17.0304 26.181 17.2207 25.8819 17.2555C25.6819 17.2713 25.4844 17.1894 25.3245 17.0242C25.2119 16.8307 25.1522 16.5895 25.1555 16.3421C25.154 16.242 25.1683 16.1427 25.1974 16.0509C25.2266 15.9591 25.2699 15.877 25.3245 15.8103C25.4566 15.649 25.608 15.5199 25.7721 15.4288C25.6623 15.3478 25.6623 15.2785 25.6032 15.1976C25.5441 15.1166 25.5441 15.0472 25.4934 14.8969C25.4427 14.7467 25.4343 14.7467 25.4343 14.5964C25.4385 14.3958 25.4986 14.2051 25.6022 14.0632C25.7059 13.9214 25.8452 13.8391 25.9917 13.8333C26.1572 13.8273 26.318 13.9103 26.4393 14.0645C26.5491 14.1455 26.5492 14.3651 26.5492 14.527V14.9085L26.3802 15.1397C26.2704 15.2207 26.2113 15.29 26.1606 15.29C26.1344 15.3358 26.1011 15.3729 26.0631 15.3989C26.0252 15.4249 25.9835 15.4391 25.941 15.4403L26.6674 16.4346C26.8015 16.0458 26.8953 15.6334 26.9461 15.2091H27.0644C27.0201 15.694 26.9052 16.1619 26.7265 16.5849L27.1742 17.1977L26.9968 17.1861ZM25.5441 14.5848C25.5454 14.7261 25.5844 14.8618 25.6539 14.9663C25.6539 15.0472 25.7637 15.1975 25.8228 15.3478C25.9326 15.2669 26.0424 15.2669 26.1015 15.1976C26.1606 15.1282 26.2113 15.1166 26.2704 15.0473C26.3295 14.9779 26.3802 14.897 26.3802 14.816C26.3802 14.7351 26.4393 14.6657 26.4393 14.5154C26.4393 14.3651 26.4393 14.2148 26.3295 14.1339C26.2355 14.0256 26.1143 13.9717 25.9917 13.9836C25.9309 13.9721 25.8691 13.98 25.8109 14.0067C25.7528 14.0335 25.7 14.0783 25.6566 14.1376C25.6132 14.197 25.5805 14.2693 25.561 14.3489C25.5415 14.4285 25.5357 14.5132 25.5441 14.5964V14.5848ZM26.5492 16.5733L25.8228 15.5097C25.6539 15.66 25.4849 15.7409 25.4343 15.8912C25.3848 15.9487 25.3443 16.0193 25.3153 16.0988C25.2863 16.1783 25.2693 16.265 25.2653 16.3537C25.2638 16.4538 25.2781 16.5531 25.3072 16.6449C25.3364 16.7367 25.3797 16.8188 25.4343 16.8855C25.4913 16.9678 25.5612 17.0313 25.6387 17.0714C25.7162 17.1114 25.7994 17.1269 25.8819 17.1167C26.0184 17.1229 26.1534 17.0763 26.2714 16.9822C26.3894 16.8882 26.4857 16.7504 26.5492 16.5849V16.5733Z" fill="#141515"/>
<path d="M26.9968 17.1861L26.659 16.7236C26.4592 17.0304 26.181 17.2207 25.8819 17.2555C25.6819 17.2713 25.4844 17.1894 25.3245 17.0242C25.2119 16.8307 25.1522 16.5895 25.1555 16.3421C25.154 16.242 25.1683 16.1427 25.1974 16.0509C25.2266 15.9591 25.2699 15.877 25.3245 15.8103C25.4566 15.649 25.608 15.5199 25.7721 15.4288C25.6623 15.3478 25.6623 15.2785 25.6032 15.1976C25.5441 15.1166 25.5441 15.0472 25.4934 14.8969C25.4427 14.7467 25.4343 14.7467 25.4343 14.5964C25.4385 14.3958 25.4986 14.2051 25.6022 14.0632C25.7059 13.9214 25.8452 13.8391 25.9917 13.8333C26.1572 13.8273 26.318 13.9103 26.4393 14.0645C26.5491 14.1455 26.5492 14.3651 26.5492 14.527V14.9085L26.3802 15.1397C26.2704 15.2207 26.2113 15.29 26.1606 15.29C26.1344 15.3358 26.1011 15.3729 26.0631 15.3989C26.0252 15.4249 25.9835 15.4391 25.941 15.4403L26.6674 16.4346C26.8015 16.0458 26.8953 15.6334 26.9461 15.2091H27.0644C27.0201 15.694 26.9052 16.1619 26.7265 16.5849L27.1742 17.1977L26.9968 17.1861ZM25.5441 14.5848C25.5454 14.7261 25.5844 14.8618 25.6539 14.9663C25.6539 15.0472 25.7637 15.1975 25.8228 15.3478C25.9326 15.2669 26.0424 15.2669 26.1015 15.1976C26.1606 15.1282 26.2113 15.1166 26.2704 15.0473C26.3295 14.9779 26.3802 14.897 26.3802 14.816C26.3802 14.7351 26.4393 14.6657 26.4393 14.5154C26.4393 14.3651 26.4393 14.2148 26.3295 14.1339C26.2355 14.0256 26.1143 13.9717 25.9917 13.9836C25.9309 13.9721 25.8691 13.98 25.8109 14.0067C25.7528 14.0335 25.7 14.0783 25.6566 14.1376C25.6132 14.197 25.5805 14.2693 25.561 14.3489C25.5415 14.4285 25.5357 14.5132 25.5441 14.5964V14.5848ZM26.5492 16.5733L25.8228 15.5097C25.6539 15.66 25.4849 15.7409 25.4343 15.8912C25.3848 15.9487 25.3443 16.0193 25.3153 16.0988C25.2863 16.1783 25.2693 16.265 25.2653 16.3537C25.2638 16.4538 25.2781 16.5531 25.3072 16.6449C25.3364 16.7367 25.3797 16.8188 25.4343 16.8855C25.4913 16.9678 25.5612 17.0313 25.6387 17.0714C25.7162 17.1114 25.7994 17.1269 25.8819 17.1167C26.0184 17.1229 26.1534 17.0763 26.2714 16.9822C26.3894 16.8882 26.4857 16.7504 26.5492 16.5849V16.5733Z" stroke="#141515" stroke-width="0.23" stroke-miterlimit="10"/>
</svg>
