<svg width="110" height="25" viewBox="0 0 110 25" fill="none" xmlns="http://www.w3.org/2000/svg">
<path d="M13.9851 8.36608C13.1673 8.12291 12.4312 7.96079 11.6134 7.96079C7.27881 7.96079 6.70632 12.1758 6.70632 15.8234V24.2533H0V0.827731H6.70632V4.15109H6.86989C8.01487 2.77311 10.1413 0.827731 12.4312 0.746674C13.4126 0.746674 14.7212 0.908789 15.539 1.23302L13.9851 8.36608Z" fill="#B62C30"/>
<path d="M32.0595 9.50088C31.6506 7.06915 30.1784 4.71848 27.5613 4.71848C24.8624 4.71848 23.3903 7.06915 22.9814 9.50088H32.0595ZM22.8178 13.6348C22.8178 16.5529 23.9628 19.8762 27.4795 19.8762C29.6877 19.8762 31.0781 18.5793 32.0595 16.715L38.1933 17.6877C36.5576 22.389 32.4684 24.9829 27.4795 24.9829C20.2007 24.9829 15.7026 19.8762 15.7026 12.7432C15.7026 5.69117 19.5465 0.0982056 27.1524 0.0982056C34.9219 0.0982056 38.3569 5.77223 38.3569 12.8242V13.6348H22.8178Z" fill="#B62C30"/>
<path d="M47.5167 24.0912H40.8104V0.665619H47.5167V24.0912Z" fill="#B62C30"/>
<path d="M57.4944 2.93522H57.5762C58.8848 1.0709 61.1747 0.0982056 63.3829 0.0982056C66.3271 0.0982056 68.3717 1.15195 70.0892 3.58368C71.5613 1.47618 74.342 0.0982056 77.0409 0.0982056C83.0929 0.0982056 84.565 4.55637 84.565 9.66299V24.2533H77.8587V11.9326C77.8587 9.66299 77.9405 5.448 74.6691 5.448C70.9888 5.448 71.0706 10.3115 71.0706 12.7432V24.2533H64.2825V12.3379C64.2825 10.0683 64.6097 5.448 61.0929 5.448C57.3309 5.448 57.4944 10.3115 57.4944 12.7432V24.2533H50.7881V0.827723H57.4944V2.93522Z" fill="#B62C30"/>
<path d="M103.866 12.5C103.866 9.33876 101.903 5.93435 98.3866 5.93435C94.9517 5.93435 93.0706 9.33876 93.0706 12.5C93.0706 15.5802 94.9517 19.0657 98.3866 19.0657C101.903 19.0657 103.866 15.5802 103.866 12.5ZM110 24.1723H103.375V22.0648H103.294C101.822 23.9291 99.7769 24.9829 97.3234 24.9829C90.3717 24.9829 86.4461 18.7414 86.4461 12.3379C86.4461 6.17752 90.3717 0.0171509 97.1598 0.0171509C99.6134 0.0171509 101.74 1.0709 103.375 2.93522V0.746668H110V24.1723Z" fill="#B62C30"/>
</svg>
