<svg width="110" height="41" viewBox="0 0 110 41" fill="none" xmlns="http://www.w3.org/2000/svg">
<g clip-path="url(#clip0_1_1302)">
<path fill-rule="evenodd" clip-rule="evenodd" d="M41.7586 8.23401H35.9862L44.1661 0H49.9245L41.7445 8.23401H41.7586Z" fill="#D02229"/>
<path d="M18.2465 24.9004C16.1335 24.0968 13.9578 23.4711 11.742 23.0297C8.67274 22.2786 6.71573 21.6125 5.98362 20.8755C5.61302 20.5519 5.32033 20.1477 5.12765 19.6935C4.93497 19.2393 4.84734 18.747 4.87138 18.2537C4.85913 17.6475 4.99684 17.0477 5.2721 16.5084C5.54736 15.9691 5.95152 15.5072 6.44823 15.1642C7.96386 14.1776 9.75948 13.7195 11.559 13.8604C13.3472 13.7294 15.1248 14.2306 16.5852 15.2776C17.7234 16.2879 18.4504 17.686 18.6267 19.2032H22.3435C22.2905 17.5608 21.7727 15.9678 20.8512 14.6115C19.9625 13.1774 18.6177 12.0885 17.0357 11.5219C15.2607 10.7441 13.3396 10.3622 11.4041 10.4023C9.55793 10.4019 7.72835 10.7529 6.01178 11.4369C4.55478 12.0093 3.2933 12.9937 2.37937 14.2713C1.56576 15.5363 1.14429 17.0162 1.16857 18.523C1.10717 19.8218 1.46799 21.1055 2.19636 22.1794C2.93383 23.3963 3.99774 24.3788 5.26559 25.0138C7.06401 25.8333 8.95527 26.4282 10.8972 26.7853C13.5019 27.4373 15.2618 28.0041 16.008 28.2876C17.0411 28.5997 17.9738 29.1816 18.7111 29.9741C19.1815 30.7003 19.44 31.5449 19.4573 32.4117C19.4656 33.322 19.1735 34.2092 18.6267 34.9343C17.9982 35.7984 17.1245 36.4506 16.1206 36.805C14.8758 37.2782 13.5506 37.4998 12.2207 37.457C10.692 37.486 9.17349 37.2016 7.7576 36.6208C6.63954 36.0906 5.67141 35.2865 4.94178 34.2824C4.26427 33.3146 3.84714 32.1868 3.73098 31.0086H-0.0563049C-0.0419324 32.8783 0.509312 34.704 1.53101 36.2655C2.55271 37.827 4.00125 39.0579 5.70204 39.8095C7.80879 40.6152 10.0525 40.9956 12.3051 40.9291C14.2398 40.9596 16.1589 40.5781 17.9368 39.8095C19.4822 39.0902 20.8019 37.9578 21.7522 36.5358C22.6369 35.2471 23.0906 33.7082 23.0475 32.1424C23.098 30.6323 22.6744 29.1446 21.8367 27.8908C20.9207 26.5441 19.6266 25.5029 18.1198 24.9004H18.2465ZM60.0896 0H56.0912V41H60.0896V17.0349C60.3983 16.28 60.9164 15.6306 61.582 15.1642C63.1346 14.1786 64.9609 13.7215 66.7913 13.8604C68.6501 13.7196 70.4977 14.2524 72.0005 15.3626C72.6348 15.8211 73.1511 16.4257 73.5062 17.1258C73.8613 17.8259 74.045 18.6014 74.042 19.3875V41.0141H77.9419L77.8433 19.2032C77.8503 17.5639 77.359 15.9617 76.4354 14.6115C75.4478 13.235 74.0968 12.1646 72.5355 11.5219C70.6516 10.7283 68.6216 10.3467 66.5801 10.4023C64.8707 10.4055 63.1733 10.6879 61.5538 11.2385L60.0615 11.8054L60.0896 0ZM39.2666 10.3882C36.2752 10.3798 33.3486 11.2655 30.8578 12.9332C28.3671 14.6009 26.4242 16.9754 25.2756 19.7558C24.127 22.5362 23.8242 25.5973 24.4058 28.5511C24.9873 31.5048 26.427 34.2183 28.5423 36.3476C30.6575 38.4768 33.3532 39.926 36.2876 40.5114C39.222 41.0968 42.2629 40.7921 45.0251 39.6358C47.7872 38.4796 50.1461 36.5239 51.8029 34.0167C53.4596 31.5094 54.3396 28.5636 54.3313 25.5524C54.3406 23.5584 53.9573 21.5822 53.2035 19.7382C52.4498 17.8941 51.3405 16.2187 49.9397 14.8087C48.539 13.3987 46.8745 12.2821 45.0426 11.5233C43.2107 10.7646 41.2475 10.3788 39.2666 10.3882ZM39.2666 37.3152C36.2542 37.2097 33.4002 35.9309 31.3062 33.7484C29.2122 31.5659 28.0418 28.6503 28.0418 25.6161C28.0418 22.582 29.2122 19.6664 31.3062 17.4839C33.4002 15.3014 36.2542 14.0226 39.2666 13.917C42.279 14.0226 45.1331 15.3014 47.2271 17.4839C49.321 19.6664 50.4914 22.582 50.4914 25.6161C50.4914 28.6503 49.321 31.5659 47.2271 33.7484C45.1331 35.9309 42.279 37.2097 39.2666 37.3152ZM95.0621 13.917C97.3622 13.917 99.6106 14.6036 101.523 15.8899C103.435 17.1761 104.926 19.0044 105.806 21.1434C106.686 23.2825 106.917 25.6362 106.468 27.907C106.019 30.1778 104.912 32.2636 103.285 33.9007C101.659 35.5379 99.5867 36.6528 97.3309 37.1045C95.075 37.5562 92.7367 37.3243 90.6118 36.4383C88.4868 35.5523 86.6705 34.0519 85.3926 32.1268C84.1148 30.2018 83.4327 27.9385 83.4327 25.6232C83.4439 22.522 84.6727 19.551 86.8512 17.3581C89.0297 15.1651 91.9812 13.9282 95.0621 13.917ZM110 25.6657V25.5665C109.987 21.5378 108.386 17.6789 105.549 14.8371C102.712 11.9953 98.8709 10.4029 94.8686 10.4094C90.8663 10.416 87.0301 12.021 84.2023 14.8721C81.3746 17.7232 79.7863 21.5873 79.7863 25.6161C79.7863 29.6449 81.3746 33.509 84.2023 36.3601C87.0301 39.2112 90.8663 40.8162 94.8686 40.8228C98.8709 40.8294 102.712 39.237 105.549 36.3952C108.386 33.5534 109.987 29.6945 110 25.6657Z" fill="black"/>
</g>
<defs>
<clipPath id="clip0_1_1302">
<rect width="110" height="41" fill="white"/>
</clipPath>
</defs>
</svg>
