<svg width="221" height="13" viewBox="0 0 221 13" fill="none" xmlns="http://www.w3.org/2000/svg">
<g clip-path="url(#clip0_1_1334)">
<path d="M10.0084 1.91176H5.86357V12.6928H4.14399V1.91176H0V0.31839H10.0084V1.91176Z" fill="#243057"/>
<path d="M22.729 11.2232C25.4148 11.2232 27.4003 9.20508 27.4003 6.50355C27.4003 3.78475 25.4148 1.78977 22.729 1.78977C20.0655 1.78977 18.0787 3.78463 18.0787 6.50355C18.0787 9.20508 20.0655 11.2232 22.729 11.2232ZM22.729 0.155853C26.6819 0.155853 29.17 3.05554 29.17 6.50343C29.17 9.84444 26.7494 12.8566 22.6968 12.8566C18.7795 12.8566 16.3115 9.86159 16.3115 6.50343C16.3115 3.0751 18.8508 0.155853 22.729 0.155853Z" fill="#243057"/>
<path d="M48.4061 12.6942H46.692V3.05566H46.6567L42.9663 7.84489H42.6876L39.0023 3.05566H38.968V12.6942H37.246V0.31839H38.8646L42.8277 5.39864L46.81 0.31839H48.4061V12.6942Z" fill="#243057"/>
<path d="M69.2962 12.6942H67.5792V3.05566H67.5424L63.8545 7.84489H63.5737L59.8849 3.05566H59.8553V12.6942H58.1335V0.31839H59.7472L63.7135 5.39864L67.7057 0.31839H69.2962V12.6942Z" fill="#243057"/>
<path d="M85.2821 0.31839H87.3584L82.9197 6.15496V12.6942H81.2001V6.14092L76.7583 0.31839H78.8279L82.0377 4.57862L85.2821 0.31839Z" fill="#243057"/>
<path d="M133.895 12.6942H132.179V7.30653H125.466V12.6942H123.752V0.31839H125.466V5.70668H132.179V0.31839H133.895V12.6942Z" fill="#243057"/>
<path d="M141.016 12.6942H142.743V0.319824H141.016V12.6942Z" fill="#243057"/>
<path d="M151.517 11.0935H156.918V12.6942H149.796V0.31839H151.517V11.0935Z" fill="#243057"/>
<path d="M168.253 1.91176H163.581V5.34562H168.253V6.93635H163.581V12.6928H161.865V0.31839H168.253V1.91176Z" fill="#243057"/>
<path d="M174.273 12.6942H175.992V0.319824H174.273V12.6942Z" fill="#243057"/>
<path d="M192.368 11.8362C190.772 12.5634 189.473 12.8566 187.809 12.8566C184.14 12.8566 181.436 10.2041 181.436 6.57349C181.436 2.92959 184.211 0.155853 187.852 0.155853C189.264 0.155853 190.246 0.388687 192.125 1.2087V3.00096C190.718 2.20674 189.264 1.78965 187.824 1.78965C185.226 1.78965 183.207 3.83658 183.207 6.52143C183.207 9.28125 185.206 11.2231 188.051 11.2231C188.983 11.2231 189.824 11.002 190.648 10.732V8.19481H188.347V6.597H192.367V11.8362H192.368Z" fill="#243057"/>
<path d="M205.714 1.91176H200.638V5.65102H205.537V7.24547H200.638V11.0935H205.871V12.6928H198.915V0.31839H205.714V1.91176Z" fill="#243057"/>
<path d="M213.468 5.72252H214.571C216.414 5.72252 216.945 4.7426 216.928 3.70918C216.908 2.55233 216.238 1.84171 214.571 1.84171H213.468V5.72252ZM214.764 0.31839C217.189 0.31839 218.699 1.64426 218.699 3.78727C218.699 5.22074 217.982 6.28919 216.692 6.81291C217.785 7.56156 218.454 8.69994 219.364 10.2399C219.88 11.0935 220.173 11.5098 221 12.6943H218.944L217.365 10.1494C215.783 7.61362 215.066 7.32117 214.192 7.32117H213.468V12.6945H211.749V0.31851H214.764L214.764 0.31839Z" fill="#243057"/>
<path d="M95.2715 13H114.304V3.05176e-05H95.2715V13Z" fill="#FEFEFE"/>
<path fill-rule="evenodd" clip-rule="evenodd" d="M104.795 9.59995H114.002V3.3938H104.795V9.59995Z" fill="#D21F34"/>
<path fill-rule="evenodd" clip-rule="evenodd" d="M95.5898 9.60007H104.795V3.40747H95.5898V9.60007Z" fill="#FEFEFE"/>
<path fill-rule="evenodd" clip-rule="evenodd" d="M95.5911 3.40519H114.002V0.320892H95.5911V3.40519Z" fill="#243057"/>
<path fill-rule="evenodd" clip-rule="evenodd" d="M95.5911 12.674H114.002V9.58221H95.5911V12.674Z" fill="#212A4F"/>
</g>
<defs>
<clipPath id="clip0_1_1334">
<rect width="221" height="13" fill="white"/>
</clipPath>
</defs>
</svg>
