<svg width="100" height="64" viewBox="0 0 100 64" fill="none" xmlns="http://www.w3.org/2000/svg">
<g clip-path="url(#clip0_1_1305)">
<path d="M19.02 1.90999L23.84 13.07H26.33L21.91 2.82999L51.91 6.25998L81.91 9.75998L79.47 13.06H82.38L85.02 9.48999L86.21 7.83998L84.21 7.63998L52.21 3.93999L20.21 0.23999L18.21 -0.0200195L19.02 1.90999ZM54.16 47.33L45.97 58.33L41.21 47.33H38.63L44.63 61.13L45.42 63.05L46.63 61.33L57.06 47.33H54.16Z" fill="black"/>
<path d="M73.04 40.33H74.56V39.54H72.18V45.15H74.56V44.33H73.04V42.73H74.33V41.94H73.08L73.04 40.33ZM70.27 40.33C70.6 40.33 70.73 40.53 70.73 40.92V41.45C70.73 41.91 70.53 42.04 70.2 42.04H69.87V40.33H70.27ZM71.72 45.15C71.6397 44.9389 71.5958 44.7158 71.59 44.49V43.63C71.59 43.04 71.46 42.57 71 42.38C71.4 42.25 71.59 41.85 71.59 41.26V40.86C71.59 39.94 71.19 39.54 70.34 39.54H68.95V45.15H69.87V42.84H70.13C70.53 42.84 70.72 43.04 70.72 43.57V44.49C70.729 44.7113 70.7524 44.9317 70.79 45.15H71.72ZM65.72 43.76C65.72 44.68 66.18 45.21 67.04 45.21C67.2315 45.2246 67.4239 45.1967 67.6033 45.1281C67.7827 45.0595 67.9447 44.952 68.0776 44.8134C68.2105 44.6747 68.3111 44.5084 68.372 44.3262C68.4329 44.1441 68.4527 43.9507 68.43 43.76V40.85C68.4469 40.6632 68.4225 40.475 68.3586 40.2987C68.2948 40.1224 68.1929 39.9623 68.0603 39.8297C67.9277 39.6971 67.7676 39.5952 67.5913 39.5314C67.415 39.4675 67.2268 39.4431 67.04 39.46C66.8567 39.4449 66.6724 39.4711 66.5005 39.5366C66.3287 39.6022 66.1738 39.7055 66.0471 39.8388C65.9205 39.9722 65.8253 40.1323 65.7687 40.3073C65.7121 40.4823 65.6955 40.6677 65.72 40.85V43.76ZM66.58 40.85C66.58 40.45 66.78 40.26 67.04 40.26C67.3 40.26 67.5 40.46 67.5 40.85V43.85C67.5 44.25 67.37 44.44 67.04 44.44C66.71 44.44 66.58 44.24 66.58 43.85V40.85ZM62.68 40.32H63.6V45.14H64.46V40.33H65.46V39.54H62.69L62.68 40.32ZM59.84 40.85C59.84 42.44 61.56 42.7 61.56 43.85C61.56 44.25 61.43 44.44 61.1 44.44C60.77 44.44 60.64 44.24 60.64 43.85V43.45H59.85V43.78C59.85 44.7 60.25 45.23 61.17 45.23C62.09 45.23 62.42 44.7 62.42 43.78C62.42 42.19 60.7 42 60.7 40.87C60.7 40.47 60.9 40.28 61.16 40.28C61.42 40.28 61.62 40.48 61.62 40.87V41.07H62.41V40.87C62.41 40.01 62.01 39.48 61.16 39.48C60.9767 39.4649 60.7924 39.4911 60.6205 39.5566C60.4487 39.6222 60.2938 39.7255 60.1671 39.8588C60.0405 39.9922 59.9453 40.1523 59.8887 40.3273C59.8321 40.5023 59.8155 40.6877 59.84 40.87V40.85ZM55.61 40.32H56.53V45.14H57.39V40.33H58.33V39.54H55.62L55.61 40.32ZM54.09 40.32C54.35 40.32 54.55 40.45 54.55 40.85V41.71C54.55 42.11 54.35 42.24 54.09 42.24H53.69V40.33L54.09 40.32ZM54.09 39.53H52.77V45.14H53.69V43.03H54.09C54.2733 43.0451 54.4577 43.0189 54.6295 42.9533C54.8014 42.8878 54.9563 42.7845 55.0829 42.6511C55.2096 42.5178 55.3047 42.3577 55.3613 42.1827C55.4179 42.0077 55.4346 41.8223 55.41 41.64V40.91C55.4386 40.727 55.4247 40.5399 55.3696 40.3632C55.3144 40.1864 55.2194 40.0246 55.0919 39.8904C54.9643 39.7561 54.8077 39.6528 54.634 39.5886C54.4603 39.5244 54.2742 39.5009 54.09 39.52V39.53ZM50.72 40.32H52.24V39.53H49.86V45.14H52.24V44.33H50.72V42.73H51.91V41.94H50.72V40.32ZM48.47 43.03V43.82C48.47 44.22 48.27 44.41 48.01 44.41C47.75 44.41 47.55 44.21 47.55 43.82V40.82C47.55 40.42 47.75 40.23 48.01 40.23C48.27 40.23 48.47 40.43 48.47 40.82V41.41H49.26V40.82C49.26 39.96 48.86 39.43 48.01 39.43C47.16 39.43 46.69 39.96 46.69 40.82V43.73C46.69 44.65 47.09 45.18 48.01 45.18C48.93 45.18 49.26 44.65 49.26 43.73V43L48.47 43.03ZM45.23 45.14H46.09V39.53H45.33V42.9L44.47 39.53H43.33V45.14H44.12V41.05L45.23 45.14ZM40.08 43.75C40.08 44.67 40.54 45.2 41.4 45.2C42.26 45.2 42.72 44.67 42.72 43.75V40.84C42.72 40.4899 42.5809 40.1541 42.3334 39.9066C42.0858 39.6591 41.7501 39.52 41.4 39.52C41.0499 39.52 40.7142 39.6591 40.4666 39.9066C40.2191 40.1541 40.08 40.4899 40.08 40.84V43.75ZM40.94 40.84C40.94 40.44 41.14 40.25 41.4 40.25C41.66 40.25 41.86 40.45 41.86 40.84V43.84C41.86 44.24 41.66 44.43 41.4 44.43C41.14 44.43 40.94 44.23 40.94 43.84V40.84ZM38.76 43.02V43.81C38.76 44.21 38.63 44.4 38.3 44.4C37.97 44.4 37.84 44.2 37.84 43.81V40.81C37.84 40.41 38.04 40.22 38.3 40.22C38.56 40.22 38.76 40.42 38.76 40.81V41.4H39.62V40.81C39.62 40.6366 39.5859 40.465 39.5195 40.3048C39.4532 40.1447 39.356 39.9992 39.2334 39.8766C39.1108 39.754 38.9653 39.6568 38.8052 39.5905C38.645 39.5241 38.4733 39.49 38.3 39.49C38.1266 39.49 37.955 39.5241 37.7949 39.5905C37.6347 39.6568 37.4892 39.754 37.3666 39.8766C37.2441 39.9992 37.1468 40.1447 37.0805 40.3048C37.0142 40.465 36.98 40.6366 36.98 40.81V43.72C36.98 44.64 37.44 45.17 38.3 45.17C39.16 45.17 39.62 44.64 39.62 43.72V42.99L38.76 43.02ZM34.27 45.13H35.19V39.52H34.4V42.89L33.48 39.52H32.33V45.13H33.12V41.04L34.27 45.13ZM30.33 40.33H31.85V39.54H29.47V45.15H31.85V44.33H30.33V42.73H31.58V41.94H30.33V40.33ZM26.33 39.54H25.08V45.15H25.87V41.15L26.53 45.15H27.33L27.99 41.15V45.15H28.78V39.54H27.59L27 43.54L26.33 39.54Z" fill="black"/>
<path fill-rule="evenodd" clip-rule="evenodd" d="M22.9799 41.8C23.1272 41.7969 23.2701 41.85 23.3796 41.9484C23.4892 42.0468 23.5572 42.1832 23.5699 42.33C23.5699 42.4878 23.5072 42.6391 23.3956 42.7507C23.284 42.8623 23.1327 42.925 22.9749 42.925C22.8171 42.925 22.6657 42.8623 22.5541 42.7507C22.4426 42.6391 22.3799 42.4878 22.3799 42.33C22.3925 42.1832 22.4606 42.0468 22.5701 41.9484C22.6797 41.85 22.8227 41.7969 22.9699 41.8H22.9799Z" fill="black"/>
<path fill-rule="evenodd" clip-rule="evenodd" d="M76.7399 41.8C76.8774 41.8093 77.0068 41.8682 77.1042 41.9656C77.2017 42.0631 77.2605 42.1925 77.2699 42.33C77.273 42.4772 77.2199 42.6202 77.1215 42.7297C77.0231 42.8393 76.8866 42.9073 76.7399 42.92C76.5834 42.92 76.4333 42.8578 76.3227 42.7472C76.212 42.6365 76.1499 42.4865 76.1499 42.33C76.1626 42.1832 76.2306 42.0468 76.3401 41.9484C76.4497 41.85 76.5926 41.7969 76.7399 41.8Z" fill="black"/>
<path d="M84.93 15.72H89.22L99.72 37.05H95.33L84.93 15.72ZM89.09 36.92L85 37.05V17.89L89.09 25.95V36.92ZM95.5 15.92L99.66 15.72V34.87L95.5 26.87V15.92ZM77.6 15.72L72.6 37.05H68.51L73.33 15.72H77.6ZM77.01 22.92L78.53 15.72H79.65L84.33 37.05H80.24L79.05 32.56H74.63L75.36 29.26H78.46L77.01 22.92ZM52.44 26.92V37.02H48.54V15.78L52.44 26.92ZM59.84 36.43H56.41L49.48 15.69H53.33L58.15 29.43L62.97 15.69H66.73L59.84 36.43ZM67.57 15.69V37.02H63.81V27.93L63.74 27.07L67.57 15.69ZM37.85 37.02C34.22 37.02 32.43 35.5 32.43 32.4V15.72H36.52V32.1C36.52 33.02 37.25 33.49 38.77 33.49V37.06L37.85 37.02ZM39.85 33.45C41.37 33.38 42.1 32.92 42.1 32.06V15.72H46.19V32.43C46.19 35.53 44.41 37.05 40.77 37.05H39.85V33.45ZM19.85 37.02H15.69V15.72H19.85V37.02ZM21.04 15.69H24.14C27.77 15.69 29.56 17.28 29.56 20.38V24.33C29.56 26.71 28.56 28.23 26.56 28.95L30.46 37.07H26.04L22.74 28.95H21.09V25.65H23.47C24.86 25.65 25.47 25.25 25.47 24.33V20.7C25.47 19.84 24.81 19.38 23.47 19.38H21.09L21.04 15.69ZM-0.0299683 15.69H13.71V19.33H0L-0.0299683 15.69ZM9.15002 37.02H5.06V20.47H9.15002V37.02Z" fill="black"/>
</g>
<defs>
<clipPath id="clip0_1_1305">
<rect width="99.73" height="63.01" fill="white"/>
</clipPath>
</defs>
</svg>
